<svg width="873" height="873" viewBox="0 0 873 873" fill="none" xmlns="http://www.w3.org/2000/svg">
<path d="M31.2043 424.986L17.6919 424.525L17.7822 421.874L31.2947 422.335L31.2043 424.986ZM14.7501 423.136C14.7308 423.703 14.5701 424.135 14.2678 424.434C13.9656 424.733 13.5485 424.873 13.0166 424.855C12.519 424.838 12.1211 424.67 11.8227 424.351C11.525 424.014 11.3855 423.571 11.4042 423.022C11.4235 422.456 11.5843 422.024 11.8865 421.725C12.1887 421.426 12.6058 421.285 13.1377 421.303C13.6353 421.32 14.033 421.497 14.3307 421.834C14.629 422.153 14.7689 422.587 14.7501 423.136Z" fill="black"/>
<path d="M33.9783 390.065C33.8416 391.173 33.4098 392.149 32.6828 392.993C31.9579 393.821 31.0336 394.442 29.9099 394.857C28.7862 395.271 27.5598 395.397 26.2307 395.233C24.8846 395.067 23.7255 394.647 22.7534 393.973C21.7663 393.281 21.0325 392.429 20.5517 391.418C20.0731 390.39 19.9064 389.288 20.0515 388.113C20.1377 387.414 20.3188 386.788 20.5948 386.234C20.8708 385.68 21.2225 385.213 21.6499 384.833C22.0624 384.434 22.5241 384.128 23.0348 383.914C23.5477 383.683 24.0809 383.567 24.6346 383.567L24.3576 384.129L20.8815 383.7L21.2096 381.042L34.6281 382.698L34.3 385.356L31.1052 384.962L31.002 384.327C31.4494 384.486 31.8747 384.754 32.2777 385.133C32.6659 385.492 32.9998 385.94 33.2796 386.476C33.5615 386.995 33.7679 387.565 33.8988 388.187C34.0317 388.792 34.0583 389.418 33.9783 390.065ZM31.6354 389.075C31.7343 388.275 31.6256 387.543 31.3094 386.881C30.9932 386.22 30.5153 385.676 29.8758 385.251C29.2214 384.807 28.4511 384.531 27.5651 384.421C26.6961 384.314 25.8987 384.397 25.173 384.671C24.4493 384.928 23.8537 385.339 23.3861 385.904C22.9185 386.469 22.6352 387.152 22.5364 387.952C22.4397 388.736 22.5494 389.459 22.8656 390.121C23.1839 390.766 23.6617 391.309 24.2991 391.751C24.9387 392.176 25.6929 392.442 26.5619 392.549C27.448 392.658 28.2613 392.586 29.002 392.331C29.7277 392.058 30.3234 391.647 30.7889 391.099C31.2565 390.534 31.5387 389.859 31.6354 389.075Z" fill="black"/>
<path d="M36.5362 368.964L23.2829 366.291L23.8126 363.665L26.6399 364.236L26.8461 364.776C26.4357 364.553 26.0574 364.258 25.7112 363.891C25.3684 363.506 25.088 363.073 24.8699 362.591C24.6385 362.089 24.4794 361.575 24.3927 361.05C24.3095 360.508 24.3205 359.976 24.4257 359.454C24.5785 358.697 24.8389 358.057 25.2067 357.536C25.5746 357.015 26.0484 356.62 26.6279 356.352C27.2075 356.083 27.893 355.941 28.6842 355.926L28.5018 356.309L28.1083 356.046C27.7585 355.783 27.4476 355.457 27.1756 355.07C26.8901 354.662 26.6551 354.22 26.4707 353.745C26.2863 353.27 26.1659 352.782 26.1095 352.28C26.0531 351.778 26.0708 351.3 26.1625 350.846C26.3628 349.853 26.7294 349.077 27.2623 348.519C27.7987 347.944 28.5114 347.58 29.4006 347.427C30.2931 347.257 31.3537 347.295 32.5822 347.543L40.5342 349.148L40.0045 351.773L32.204 350.199C31.4467 350.046 30.8121 350.023 30.3001 350.13C29.7747 350.217 29.3551 350.43 29.0414 350.77C28.7277 351.109 28.5097 351.582 28.3875 352.188C28.2924 352.659 28.2866 353.122 28.37 353.577C28.44 354.011 28.5875 354.409 28.8125 354.769C29.0374 355.13 29.3265 355.434 29.6796 355.68C30.0159 355.923 30.4113 356.09 30.8657 356.182L38.7924 357.781L38.2627 360.407L30.4117 358.823C29.7217 358.683 29.1207 358.667 28.6087 358.774C28.0799 358.878 27.6503 359.097 27.3197 359.434C26.9892 359.77 26.7679 360.215 26.6559 360.771C26.5608 361.242 26.5567 361.697 26.6435 362.135C26.7134 362.569 26.8609 362.967 27.0859 363.327C27.2941 363.684 27.5747 363.986 27.9278 364.233C28.2641 364.476 28.6511 364.641 29.0886 364.73L37.0659 366.339L36.5362 368.964Z" fill="black"/>
<path d="M50.0104 314.952C49.667 316.014 49.0587 316.891 48.1854 317.583C47.3174 318.259 46.2924 318.694 45.1106 318.889C43.9287 319.085 42.7007 318.976 41.4265 318.564C40.136 318.147 39.0769 317.516 38.2495 316.671C37.4109 315.805 36.851 314.83 36.5698 313.746C36.2938 312.647 36.338 311.533 36.7025 310.406C36.919 309.736 37.2151 309.155 37.5907 308.663C37.9663 308.171 38.3998 307.779 38.8913 307.487C39.3717 307.173 39.8828 306.959 40.4247 306.846C40.9719 306.716 41.5175 306.703 42.0613 306.807L41.6831 307.307L38.3505 306.229L39.1745 303.681L52.0391 307.84L51.2152 310.389L48.1522 309.399L48.1708 308.755C48.5802 308.996 48.947 309.34 49.2714 309.787C49.5847 310.214 49.8282 310.716 50.0017 311.296C50.1806 311.859 50.2756 312.458 50.2867 313.093C50.3032 313.712 50.2111 314.332 50.0104 314.952ZM47.8964 313.538C48.1446 312.77 48.176 312.032 47.9904 311.322C47.8048 310.612 47.4381 309.989 46.8903 309.451C46.3314 308.891 45.6273 308.474 44.7778 308.199C43.9447 307.93 43.1459 307.861 42.3815 307.993C41.6225 308.108 40.96 308.399 40.3941 308.866C39.8283 309.333 39.4212 309.95 39.173 310.718C38.93 311.469 38.9013 312.2 39.0869 312.909C39.2778 313.602 39.6444 314.226 40.187 314.78C40.7348 315.318 41.4252 315.722 42.2584 315.992C43.1079 316.266 43.9203 316.348 44.6957 316.238C45.4601 316.106 46.1225 315.815 46.6831 315.365C47.249 314.899 47.6534 314.29 47.8964 313.538Z" fill="black"/>
<path d="M56.6395 294.719L44.0663 289.747L45.0417 287.28L47.6281 288.303L47.7451 288.848C47.2494 288.467 46.8616 287.954 46.5817 287.308C46.2858 286.655 46.1204 285.953 46.0855 285.201C46.0347 284.442 46.1418 283.728 46.407 283.057C46.7857 282.099 47.293 281.377 47.9287 280.889C48.5484 280.396 49.3046 280.141 50.1972 280.125C51.0898 280.109 52.1189 280.331 53.2844 280.792L60.948 283.822L59.9727 286.289L52.4767 283.325C51.7582 283.041 51.1296 282.903 50.5908 282.911C50.0361 282.914 49.5761 283.073 49.2107 283.39C48.8293 283.701 48.5378 284.158 48.3362 284.761C48.1468 285.24 48.053 285.711 48.0549 286.173C48.0407 286.629 48.1094 287.063 48.2609 287.473C48.4187 287.868 48.6465 288.226 48.9442 288.547C49.2323 288.845 49.584 289.076 49.9991 289.241L57.6148 292.252L57.1319 293.473C57.0498 293.681 56.9677 293.888 56.8857 294.096C56.8036 294.303 56.7215 294.511 56.6395 294.719Z" fill="black"/>
<path d="M75.8449 252.009C75.1524 253.352 74.2834 254.382 73.2378 255.098C72.1769 255.807 71.0395 256.196 69.8254 256.265C68.596 256.326 67.3786 256.046 66.1732 255.424C65.2424 254.944 64.4666 254.351 63.8458 253.644C63.225 252.938 62.7739 252.164 62.4926 251.324C62.1961 250.476 62.0881 249.599 62.1685 248.694C62.2415 247.766 62.5102 246.851 62.9745 245.951C63.4152 245.097 63.9692 244.397 64.6363 243.853C65.3114 243.293 66.0573 242.895 66.8742 242.66C67.6911 242.424 68.5442 242.362 69.4336 242.473C70.3229 242.584 71.2022 242.883 72.0715 243.37L73.0439 243.9L68.0506 253.582L65.7192 253.046L69.4494 245.813L69.6836 246.427L69.2258 246.191C68.8286 246.024 68.4299 245.973 68.0298 246.037C67.6224 246.078 67.2481 246.223 66.9071 246.473C66.5662 246.722 66.2855 247.06 66.0652 247.487C65.7582 248.082 65.6167 248.656 65.6405 249.209C65.6569 249.74 65.8389 250.229 66.1865 250.679C66.5188 251.121 67.013 251.511 67.6692 251.849C68.3406 252.196 68.9988 252.361 69.644 252.346C70.2818 252.308 70.8758 252.093 71.4259 251.701C71.9839 251.293 72.4556 250.715 72.8412 249.968C73.1088 249.449 73.2686 248.952 73.3206 248.476C73.3805 247.986 73.3493 247.409 73.2271 246.747L76.5386 246.282C76.7066 246.968 76.7826 247.644 76.7666 248.312C76.7505 248.98 76.658 249.628 76.4889 250.255C76.3429 250.875 76.1282 251.46 75.8449 252.009Z" fill="black"/>
<path d="M84.4721 235.398L72.732 228.386L74.7393 225.025L77.1931 226.341L77.0358 227.207C76.602 226.728 76.2947 226.154 76.1137 225.486C75.9269 224.794 75.8768 224.075 75.9637 223.327C76.0505 222.578 76.2876 221.88 76.675 221.232C77.2032 220.347 77.8321 219.713 78.5615 219.329C79.2762 218.936 80.0871 218.8 80.9943 218.922C81.8866 219.035 82.8487 219.4 83.8805 220.016L91.0881 224.321L88.962 227.881L82.0418 223.747C81.5701 223.466 81.1399 223.299 80.7511 223.246C80.3624 223.194 80.0106 223.264 79.696 223.456C79.3754 223.624 79.1036 223.912 78.8806 224.319C78.6958 224.628 78.5757 224.947 78.5204 225.274C78.4503 225.592 78.4539 225.904 78.5311 226.21C78.5935 226.507 78.7074 226.785 78.8728 227.044C79.047 227.288 79.2742 227.494 79.5542 227.661L86.585 231.86L85.5417 233.607C85.2952 234.02 85.0839 234.373 84.9079 234.668C84.7318 234.963 84.5865 235.206 84.4721 235.398Z" fill="black"/>
<path d="M106.095 212.085C105.463 213.004 104.696 213.832 103.795 214.566C102.904 215.287 102.052 215.785 101.238 216.059L99.6781 213.236C100.08 213.075 100.474 212.867 100.859 212.61C101.267 212.349 101.65 212.05 102.007 211.712C102.364 211.374 102.684 211 102.966 210.59C103.462 209.869 103.76 209.209 103.859 208.61C103.958 208.011 103.866 207.448 103.583 206.92C103.314 206.402 102.854 205.919 102.203 205.472L100.314 204.173L100.873 203.588C101.272 204.008 101.526 204.548 101.635 205.207C101.755 205.851 101.74 206.539 101.592 207.27C101.429 207.992 101.129 208.671 100.691 209.308C99.991 210.326 99.1303 211.078 98.109 211.564C97.0833 212.025 95.9926 212.203 94.8369 212.096C93.6768 211.965 92.545 211.52 91.4414 210.762C90.3096 209.984 89.4678 209.072 88.9159 208.026C88.35 206.97 88.0918 205.876 88.1412 204.743C88.1766 203.6 88.5346 202.534 89.2154 201.544C89.5072 201.119 89.8339 200.75 90.1956 200.436C90.5669 200.108 90.9494 199.84 91.3428 199.631C91.7319 199.398 92.1271 199.233 92.5286 199.134C92.9256 199.011 93.3049 198.959 93.6666 198.978C94.0379 198.984 94.3775 199.05 94.6852 199.179L94.3735 199.996L91.9144 198.118L94.1319 194.892L104.488 202.011C105.408 202.643 106.124 203.344 106.637 204.113C107.174 204.878 107.505 205.7 107.631 206.578C107.78 207.451 107.724 208.351 107.464 209.276C107.203 210.2 106.747 211.137 106.095 212.085ZM98.5558 206.777C98.9351 206.225 99.1407 205.669 99.1725 205.107C99.1999 204.522 99.0672 203.972 98.7745 203.459C98.4915 202.931 98.0529 202.462 97.4587 202.054C96.8645 201.646 96.2703 201.404 95.6761 201.329C95.0774 201.23 94.5168 201.303 93.9943 201.547C93.4673 201.769 93.0141 202.155 92.6348 202.707C92.2652 203.244 92.0716 203.799 92.0539 204.37C92.0221 204.932 92.1548 205.481 92.4519 206.019C92.7446 206.532 93.1881 206.993 93.7823 207.402C94.3765 207.81 94.9659 208.059 95.5503 208.149C96.1445 208.224 96.7051 208.151 97.2321 207.93C97.745 207.699 98.1862 207.315 98.5558 206.777Z" fill="black"/>
<path d="M113.144 192.105L102.288 183.79L104.794 180.519L115.65 188.834L113.144 192.105ZM101.394 180.51C100.924 181.124 100.411 181.498 99.8529 181.633C99.292 181.744 98.739 181.591 98.1938 181.173C97.7031 180.797 97.4367 180.312 97.3947 179.718C97.3526 179.123 97.5613 178.526 98.0206 177.926C98.4904 177.313 99.0057 176.951 99.5665 176.84C100.114 176.718 100.653 176.861 101.185 177.268C101.689 177.654 101.962 178.145 102.004 178.739C102.057 179.32 101.853 179.91 101.394 180.51Z" fill="black"/>
<path d="M122.312 180.338L111.883 171.493L114.415 168.507L116.62 170.208L116.322 171.037C115.973 170.493 115.764 169.877 115.695 169.188C115.625 168.475 115.693 167.757 115.902 167.033C116.11 166.31 116.459 165.66 116.948 165.084C117.614 164.298 118.338 163.776 119.121 163.516C119.891 163.246 120.713 163.246 121.588 163.515C122.449 163.773 123.338 164.291 124.255 165.068L130.658 170.498L127.976 173.66L121.828 168.447C121.409 168.091 121.012 167.856 120.638 167.74C120.263 167.625 119.904 167.636 119.562 167.774C119.218 167.887 118.903 168.127 118.616 168.491C118.383 168.766 118.212 169.06 118.104 169.374C117.983 169.676 117.935 169.984 117.961 170.299C117.974 170.603 118.04 170.896 118.161 171.178C118.293 171.447 118.483 171.687 118.732 171.898L124.977 177.196L123.661 178.747C123.35 179.114 123.084 179.428 122.862 179.69C122.64 179.952 122.456 180.168 122.312 180.338Z" fill="black"/>
<path d="M143.572 156.777C142.525 157.866 141.398 158.605 140.192 158.993C138.973 159.369 137.772 159.417 136.588 159.137C135.393 158.844 134.306 158.228 133.328 157.288C132.573 156.563 131.999 155.773 131.606 154.918C131.212 154.064 131.001 153.194 130.971 152.308C130.929 151.41 131.076 150.539 131.412 149.695C131.747 148.826 132.265 148.026 132.967 147.296C133.634 146.603 134.364 146.091 135.159 145.76C135.966 145.416 136.794 145.248 137.644 145.255C138.494 145.263 139.33 145.447 140.15 145.807C140.971 146.167 141.728 146.705 142.423 147.42L143.203 148.206L135.653 156.059L133.572 154.879L139.212 149.013L139.261 149.667L138.89 149.311C138.557 149.038 138.189 148.875 137.788 148.822C137.385 148.745 136.985 148.777 136.587 148.919C136.189 149.06 135.824 149.304 135.491 149.651C135.027 150.133 134.727 150.643 134.592 151.18C134.456 151.693 134.491 152.214 134.696 152.744C134.888 153.263 135.25 153.778 135.782 154.289C136.327 154.813 136.911 155.16 137.533 155.33C138.155 155.475 138.786 155.438 139.425 155.219C140.076 154.988 140.694 154.569 141.277 153.963C141.681 153.542 141.976 153.111 142.162 152.67C142.359 152.217 142.494 151.656 142.566 150.987L145.872 151.486C145.838 152.191 145.717 152.861 145.511 153.497C145.305 154.132 145.031 154.726 144.69 155.28C144.373 155.832 144.001 156.331 143.572 156.777Z" fill="black"/>
<path d="M161.556 139.103C160.444 140.125 159.273 140.792 158.045 141.104C156.805 141.404 155.603 141.377 154.439 141.023C153.264 140.657 152.218 139.975 151.3 138.976C150.592 138.204 150.068 137.38 149.729 136.503C149.389 135.626 149.232 134.744 149.258 133.858C149.272 132.96 149.473 132.1 149.86 131.278C150.249 130.431 150.816 129.666 151.562 128.981C152.27 128.33 153.031 127.865 153.845 127.583C154.672 127.29 155.509 127.174 156.357 127.235C157.205 127.295 158.027 127.53 158.824 127.941C159.621 128.352 160.343 128.935 160.991 129.692L161.721 130.525L153.698 137.893L151.694 136.587L157.688 131.082L157.696 131.739L157.348 131.36C157.032 131.067 156.676 130.881 156.278 130.804C155.881 130.702 155.48 130.709 155.074 130.825C154.668 130.942 154.288 131.162 153.934 131.488C153.441 131.94 153.11 132.431 152.942 132.958C152.774 133.461 152.777 133.984 152.948 134.526C153.108 135.055 153.437 135.592 153.936 136.135C154.447 136.692 155.008 137.074 155.619 137.282C156.231 137.466 156.863 137.469 157.514 137.29C158.179 137.1 158.821 136.72 159.44 136.151C159.87 135.756 160.191 135.345 160.404 134.916C160.629 134.476 160.799 133.925 160.912 133.261L164.181 133.965C164.103 134.667 163.941 135.328 163.696 135.95C163.45 136.571 163.14 137.147 162.765 137.678C162.415 138.21 162.012 138.685 161.556 139.103Z" fill="black"/>
<path d="M175.406 126.52L166.719 115.959L169.742 113.473L172.712 116.799L171.575 116.633C171.265 115.932 171.104 115.209 171.091 114.464C171.091 113.708 171.228 112.995 171.5 112.327C171.773 111.658 172.187 111.094 172.744 110.636C172.983 110.44 173.218 110.28 173.45 110.156C173.695 110.021 173.925 109.91 174.141 109.821L176.162 114.061C175.939 114.088 175.681 114.179 175.385 114.333C175.092 114.463 174.813 114.637 174.547 114.855C174.256 115.095 174.027 115.372 173.863 115.685C173.687 115.985 173.59 116.299 173.57 116.626C173.55 116.954 173.591 117.287 173.692 117.626C173.807 117.955 173.995 118.278 174.256 118.596L178.608 123.886L175.406 126.52Z" fill="black"/>
<path d="M191.233 114.254C190.781 114.596 190.334 114.73 189.89 114.656C189.437 114.569 189.023 114.279 188.65 113.786C188.308 113.334 188.159 112.866 188.201 112.382C188.244 111.898 188.477 111.495 188.902 111.174C189.353 110.832 189.806 110.704 190.26 110.792C190.703 110.865 191.111 111.149 191.484 111.641C191.826 112.093 191.976 112.561 191.933 113.046C191.891 113.53 191.657 113.933 191.233 114.254Z" fill="black"/>
<path d="M214.233 97.6559L206.884 86.3076L209.11 84.8657L216.46 96.2139L214.233 97.6559ZM206.34 83.1003C205.865 83.4083 205.418 83.5238 205 83.4468C204.582 83.3698 204.228 83.1079 203.939 82.6612C203.668 82.2433 203.579 81.8207 203.67 81.3933C203.776 80.9566 204.059 80.5889 204.521 80.2902C204.996 79.9823 205.443 79.8668 205.861 79.9437C206.279 80.0207 206.633 80.2826 206.922 80.7293C207.193 81.1472 207.275 81.5745 207.169 82.0112C207.078 82.4386 206.802 82.8016 206.34 83.1003Z" fill="black"/>
<path d="M244.466 79.961C243.479 80.4822 242.432 80.6861 241.323 80.5726C240.23 80.4512 239.192 80.0481 238.209 79.3635C237.226 78.6789 236.422 77.7446 235.796 76.5605C235.163 75.3612 234.844 74.1703 234.841 72.9876C234.845 71.7818 235.124 70.6927 235.678 69.7203C236.247 68.7399 237.056 67.973 238.103 67.4197C238.726 67.0909 239.343 66.8813 239.956 66.7908C240.568 66.7003 241.152 66.7218 241.708 66.8553C242.271 66.9656 242.786 67.1691 243.254 67.4659C243.736 67.7546 244.136 68.1258 244.454 68.5795L243.834 68.674L242.198 65.5772L244.566 64.3262L250.881 76.281L248.513 77.532L247.009 74.6856L247.472 74.2375C247.597 74.6955 247.62 75.198 247.54 75.7451C247.467 76.269 247.291 76.799 247.011 77.3352C246.746 77.8633 246.396 78.3588 245.961 78.8216C245.541 79.2765 245.043 79.6562 244.466 79.961ZM243.938 77.4729C244.652 77.096 245.19 76.5887 245.552 75.9508C245.914 75.313 246.086 74.6102 246.069 73.8426C246.059 73.0518 245.846 72.2617 245.429 71.4723C245.02 70.6981 244.495 70.0916 243.856 69.6527C243.231 69.2059 242.554 68.9522 241.823 68.8918C241.092 68.8313 240.37 68.9895 239.656 69.3664C238.958 69.7353 238.428 70.2387 238.065 70.8765C237.719 71.5064 237.546 72.2091 237.548 72.9847C237.565 73.7523 237.778 74.5233 238.187 75.2975C238.604 76.0869 239.129 76.7126 239.761 77.1746C240.401 77.6134 241.079 77.8671 241.794 77.9356C242.525 77.996 243.24 77.8418 243.938 77.4729Z" fill="black"/>
<path d="M263.239 69.9922L257.853 57.5909L260.31 56.524L261.459 59.1696L261.133 59.648C261.081 59.1839 261.107 58.7047 261.211 58.2105C261.33 57.7094 261.525 57.2317 261.796 56.7772C262.075 56.3002 262.406 55.8759 262.787 55.5044C263.184 55.126 263.627 54.8308 264.115 54.6188C264.824 54.311 265.497 54.159 266.135 54.1626C266.773 54.1663 267.368 54.3292 267.92 54.6511C268.471 54.9731 268.98 55.4542 269.445 56.0945L269.026 56.1641L269.017 55.6907C269.033 55.2533 269.122 54.8122 269.284 54.3673C269.456 53.8998 269.684 53.4546 269.968 53.0316C270.252 52.6087 270.584 52.2306 270.963 51.8974C271.343 51.5641 271.745 51.3052 272.17 51.1206C273.099 50.717 273.945 50.5743 274.708 50.6924C275.486 50.8036 276.192 51.1801 276.827 51.8217C277.477 52.4566 278.051 53.3488 278.551 54.4984L281.782 61.9392L279.325 63.0061L276.155 55.707C275.848 54.9984 275.504 54.4646 275.123 54.1058C274.752 53.7243 274.337 53.502 273.879 53.4388C273.421 53.3757 272.909 53.4672 272.342 53.7134C271.901 53.9049 271.518 54.1649 271.192 54.4933C270.876 54.7992 270.634 55.1475 270.467 55.5383C270.3 55.9292 270.216 56.3399 270.216 56.7704C270.209 57.1853 270.298 57.6053 270.482 58.0305L273.703 65.4476L271.247 66.5145L268.056 59.1682C267.776 58.5226 267.446 58.0203 267.065 57.6615C266.678 57.2869 266.252 57.0601 265.787 56.9812C265.322 56.9023 264.83 56.9756 264.31 57.2013C263.869 57.3928 263.494 57.6494 263.185 57.971C262.868 58.2769 262.626 58.6252 262.459 59.016C262.285 59.3911 262.198 59.7939 262.198 60.2245C262.191 60.6393 262.276 61.0515 262.454 61.4609L265.696 68.9253L263.239 69.9922Z" fill="black"/>
<path d="M315.253 50.1575C314.186 50.4831 313.118 50.4856 312.051 50.1649C311 49.8392 310.057 49.2475 309.221 48.3896C308.385 47.5318 307.772 46.4624 307.381 45.1816C306.985 43.8843 306.897 42.6546 307.117 41.4926C307.348 40.3091 307.828 39.2923 308.556 38.442C309.3 37.5867 310.239 36.9863 311.372 36.6406C312.045 36.4352 312.691 36.3459 313.31 36.3726C313.928 36.3994 314.498 36.5308 315.018 36.7668C315.55 36.9814 316.018 37.2786 316.421 37.6582C316.841 38.0329 317.163 38.4729 317.389 38.9784L316.763 38.9541L315.741 35.6041L318.302 34.8227L322.247 47.7547L319.686 48.5361L318.746 45.4571L319.285 45.1043C319.322 45.5778 319.249 46.0755 319.067 46.5977C318.897 47.0984 318.624 47.5856 318.248 48.0593C317.888 48.528 317.451 48.9485 316.936 49.3209C316.438 49.6883 315.877 49.9672 315.253 50.1575ZM315.204 47.6146C315.976 47.3791 316.6 46.9824 317.076 46.4244C317.552 45.8663 317.854 45.2088 317.982 44.4517C318.121 43.6732 318.061 42.857 317.8 42.0031C317.545 41.1656 317.145 40.471 316.599 39.9194C316.07 39.3627 315.453 38.9857 314.746 38.7883C314.04 38.591 313.301 38.61 312.529 38.8454C311.774 39.0759 311.158 39.4701 310.682 40.0281C310.223 40.5812 309.921 41.2387 309.776 42.0008C309.648 42.7578 309.712 43.5551 309.967 44.3926C310.228 45.2465 310.625 45.96 311.159 46.5331C311.704 47.0848 312.322 47.4618 313.011 47.6642C313.718 47.8615 314.449 47.845 315.204 47.6146Z" fill="black"/>
<path d="M356.29 39.6367C354.994 39.8968 353.771 39.8268 352.623 39.4268C351.475 39.0269 350.493 38.3659 349.677 37.4438C348.875 36.5015 348.341 35.3655 348.074 34.0356C347.807 32.7058 347.864 31.46 348.244 30.2981C348.637 29.116 349.286 28.119 350.191 27.307C351.096 26.4949 352.197 25.9589 353.493 25.6988C354.688 25.459 355.825 25.4499 356.902 25.6715C357.997 25.8897 358.915 26.3184 359.656 26.9577L357.986 30.0244C357.696 29.8024 357.368 29.6056 357.001 29.4341C356.634 29.2626 356.243 29.1484 355.829 29.0914C355.415 29.0344 354.997 29.0481 354.576 29.1326C353.937 29.2609 353.403 29.5255 352.976 29.9265C352.545 30.3106 352.247 30.7906 352.083 31.3665C351.918 31.9423 351.903 32.5669 352.038 33.2402C352.167 33.8799 352.418 34.4336 352.792 34.9014C353.183 35.3658 353.653 35.7006 354.202 35.9056C354.751 36.1107 355.336 36.1507 355.959 36.0257C356.397 35.9379 356.791 35.8064 357.141 35.6311C357.488 35.4389 357.79 35.2031 358.05 34.9234C358.326 34.6404 358.566 34.312 358.771 33.9381L361.475 36.1537C361.048 36.9923 360.363 37.7251 359.42 38.3519C358.495 38.9754 357.451 39.4037 356.29 39.6367Z" fill="black"/>
<path d="M372.678 36.3969L370.68 22.8688L374.552 22.2969L375.382 26.678L374.493 25.9501C374.589 25.1897 374.824 24.4869 375.197 23.8417C375.587 23.194 376.072 22.6538 376.65 22.2213C377.228 21.7888 377.874 21.5199 378.587 21.4145C378.893 21.3694 379.177 21.3535 379.439 21.3668C379.719 21.3776 379.974 21.4007 380.205 21.436L379.75 26.1109C379.545 26.0196 379.277 25.9638 378.944 25.9436C378.626 25.9038 378.297 25.909 377.957 25.9592C377.583 26.0144 377.245 26.1337 376.943 26.3173C376.637 26.4838 376.392 26.7023 376.206 26.9727C376.021 27.2431 375.884 27.5497 375.795 27.8924C375.724 28.2327 375.719 28.6067 375.779 29.0143L376.78 35.791L372.678 36.3969Z" fill="black"/>
<path d="M397.944 33.4717C396.44 33.6107 395.104 33.4324 393.938 32.9368C392.77 32.424 391.83 31.6747 391.118 30.6887C390.405 29.6856 389.985 28.5088 389.861 27.1583C389.764 26.1154 389.847 25.1423 390.108 24.2388C390.369 23.3353 390.778 22.5388 391.335 21.8494C391.891 21.1429 392.572 20.5799 393.378 20.1606C394.199 19.7226 395.114 19.457 396.123 19.3638C397.08 19.2753 397.968 19.3656 398.786 19.6349C399.621 19.9025 400.358 20.3172 400.996 20.879C401.634 21.4407 402.146 22.1262 402.531 22.9354C402.916 23.7447 403.137 24.6467 403.195 25.6414L403.271 26.7464L392.424 27.749L391.621 25.4955L399.724 24.7466L399.333 25.2741L399.286 24.7612C399.212 24.337 399.041 23.9735 398.771 23.6708C398.517 23.3495 398.194 23.1121 397.8 22.9588C397.407 22.8056 396.971 22.751 396.492 22.7953C395.825 22.8569 395.265 23.0466 394.812 23.3644C394.374 23.6635 394.059 24.0805 393.867 24.6155C393.674 25.1334 393.611 25.7599 393.679 26.495C393.748 27.2472 393.963 27.8912 394.323 28.4269C394.698 28.944 395.199 29.3287 395.826 29.5811C396.47 29.832 397.211 29.9187 398.048 29.8413C398.63 29.7875 399.135 29.6547 399.563 29.4426C400.009 29.229 400.478 28.8926 400.97 28.4333L403.145 30.9737C402.657 31.4843 402.128 31.9126 401.556 32.2585C400.985 32.6044 400.389 32.875 399.769 33.0702C399.168 33.281 398.56 33.4148 397.944 33.4717Z" fill="black"/>
<path d="M421.64 31.8786C420.49 31.9112 419.452 31.6401 418.526 31.0652C417.616 30.4727 416.88 29.6519 416.317 28.603C415.755 27.5369 415.454 26.3259 415.416 24.9701C415.376 23.58 415.608 22.3454 416.109 21.2663C416.611 20.1872 417.317 19.3342 418.227 18.7073C419.136 18.0632 420.183 17.7243 421.367 17.6908C422.019 17.6723 422.614 17.7499 423.151 17.9236C423.706 18.0968 424.194 18.3492 424.615 18.6807C425.037 18.9951 425.399 19.3713 425.704 19.8092C426.008 20.23 426.235 20.6873 426.387 21.1811L425.534 21.1022L425.442 17.8586L429.535 17.7426L429.923 31.412L425.753 31.5302L425.659 28.2351L426.585 28.1831C426.461 28.6675 426.251 29.1286 425.954 29.5664C425.658 30.0042 425.291 30.3925 424.854 30.7312C424.417 31.0699 423.927 31.3415 423.383 31.5458C422.839 31.7502 422.258 31.8611 421.64 31.8786ZM422.674 28.3712C423.309 28.3532 423.854 28.1918 424.31 27.8869C424.765 27.582 425.113 27.1599 425.356 26.6206C425.598 26.0642 425.708 25.4169 425.687 24.679C425.666 23.941 425.519 23.3097 425.247 22.785C424.974 22.2431 424.602 21.8328 424.13 21.5542C423.658 21.2585 423.104 21.1196 422.469 21.1376C421.852 21.1551 421.315 21.3249 420.861 21.6469C420.423 21.9513 420.083 22.3817 419.841 22.9382C419.599 23.4775 419.488 24.1162 419.509 24.8541C419.53 25.5921 419.677 26.232 419.95 26.7739C420.222 27.2986 420.586 27.7005 421.04 27.9796C421.512 28.2582 422.057 28.3888 422.674 28.3712Z" fill="black"/>
<path d="M444.209 31.4564L444.683 14.3373L448.802 14.4514L448.328 31.5705L444.209 31.4564ZM442.068 21.3238L442.168 17.7198L451.358 17.9744L451.258 21.5785L442.068 21.3238Z" fill="black"/>
<path d="M462.214 32.2145L463.167 18.5729L467.278 18.86L466.325 32.5016L462.214 32.2145ZM465.411 16.0189C464.64 15.9651 464.045 15.7428 463.624 15.352C463.223 14.9453 463.046 14.3995 463.093 13.7144C463.136 13.0978 463.394 12.6081 463.867 12.2453C464.34 11.8825 464.953 11.7274 465.707 11.78C466.478 11.8338 467.064 12.0641 467.466 12.4708C467.869 12.8604 468.047 13.3891 468 14.0571C467.956 14.6908 467.697 15.189 467.225 15.5519C466.769 15.9159 466.164 16.0716 465.411 16.0189Z" fill="black"/>
<path d="M481.253 33.8819L477.185 19.6291L481.711 20.1657L483.884 30.7187L482.874 30.7028L487.568 20.8599L492.043 21.3904L484.475 34.2638L481.253 33.8819Z" fill="black"/>
<path d="M507.222 37.9034C505.736 37.6348 504.497 37.1057 503.505 36.316C502.517 35.5094 501.812 34.5359 501.389 33.3954C500.97 32.2381 500.881 30.992 501.123 29.6573C501.309 28.6267 501.649 27.7111 502.142 26.9104C502.636 26.1098 503.243 25.4519 503.964 24.9366C504.688 24.4044 505.495 24.0442 506.384 23.8558C507.293 23.6536 508.245 23.6425 509.242 23.8225C510.188 23.9934 511.02 24.318 511.736 24.7963C512.469 25.2776 513.068 25.8743 513.532 26.5863C513.997 27.2982 514.306 28.0956 514.461 28.9784C514.615 29.8612 514.587 30.7895 514.377 31.7634L514.154 32.8485L503.434 30.9123L503.263 28.5261L511.272 29.9726L510.754 30.3763L510.846 29.8694C510.888 29.441 510.82 29.0448 510.641 28.6811C510.483 28.3035 510.234 27.9883 509.896 27.7353C509.558 27.4823 509.153 27.3131 508.68 27.2276C508.021 27.1086 507.43 27.1415 506.908 27.3264C506.406 27.4975 505.991 27.815 505.663 28.2792C505.338 28.7264 505.11 29.3133 504.979 30.0398C504.845 30.7832 504.879 31.4611 505.083 32.0736C505.306 32.6722 505.686 33.177 506.222 33.5879C506.776 34.0019 507.466 34.2836 508.294 34.4332C508.868 34.5369 509.391 34.544 509.86 34.4544C510.347 34.3678 510.889 34.1691 511.486 33.8582L512.901 36.8879C512.295 37.2494 511.671 37.5204 511.027 37.7008C510.384 37.8813 509.738 37.9826 509.088 38.0048C508.453 38.047 507.831 38.0132 507.222 37.9034Z" fill="black"/>
<path d="M526.627 41.8718C526.075 41.7443 525.685 41.4869 525.457 41.0995C525.233 40.6954 525.191 40.1922 525.33 39.59C525.457 39.038 525.72 38.623 526.119 38.3451C526.518 38.0672 526.977 37.9881 527.496 38.1079C528.048 38.2354 528.436 38.5012 528.66 38.9053C528.887 39.2926 528.932 39.7874 528.793 40.3897C528.665 40.9417 528.402 41.3567 528.003 41.6346C527.604 41.9125 527.145 41.9915 526.627 41.8718Z" fill="black"/>
<path d="M554.11 48.8816L558.107 35.9656L560.641 36.7498L556.644 49.6658L554.11 48.8816ZM560.22 33.4924C559.679 33.3249 559.304 33.0561 559.095 32.6859C558.886 32.3157 558.86 31.8764 559.018 31.368C559.165 30.8924 559.432 30.5526 559.818 30.3487C560.221 30.15 560.685 30.1318 561.21 30.2942C561.751 30.4617 562.126 30.7305 562.335 31.1007C562.544 31.4709 562.57 31.9102 562.413 32.4186C562.266 32.8943 561.991 33.2315 561.588 33.4303C561.201 33.6341 560.745 33.6548 560.22 33.4924Z" fill="black"/>
<path d="M587.073 60.7389C586.04 60.3158 585.212 59.6426 584.589 58.7192C583.981 57.8023 583.625 56.7472 583.52 55.5539C583.415 54.3606 583.617 53.1444 584.124 51.9052C584.639 50.6501 585.348 49.6422 586.254 48.8814C587.182 48.1112 588.196 47.627 589.298 47.429C590.415 47.2374 591.522 47.3662 592.618 47.8153C593.27 48.0822 593.826 48.4216 594.289 48.8335C594.751 49.2455 595.109 49.7076 595.363 50.2198C595.639 50.7227 595.813 51.2486 595.885 51.7976C595.973 52.3531 595.944 52.898 595.8 53.4324L595.33 53.0172L596.658 49.7763L599.136 50.7917L594.01 63.3027L591.532 62.2873L592.752 59.3085L593.392 59.376C593.121 59.7659 592.75 60.1055 592.279 60.3949C591.831 60.6749 591.311 60.8794 590.72 61.0084C590.145 61.1439 589.54 61.1931 588.906 61.1559C588.288 61.1252 587.677 60.9862 587.073 60.7389ZM588.644 58.7386C589.391 59.0445 590.125 59.132 590.847 59.0009C591.568 58.8698 592.218 58.5516 592.796 58.0463C593.397 57.5316 593.866 56.8612 594.205 56.0351C594.537 55.2249 594.666 54.4337 594.593 53.6615C594.535 52.8958 594.295 52.2131 593.873 51.6134C593.451 51.0137 592.867 50.5609 592.12 50.255C591.389 49.9555 590.663 49.8714 589.941 50.0025C589.235 50.1401 588.586 50.4582 587.992 50.957C587.413 51.4623 586.958 52.1201 586.627 52.9303C586.288 53.7565 586.144 54.5603 586.195 55.3419C586.268 56.114 586.508 56.7967 586.915 57.3899C587.337 57.9896 587.913 58.4392 588.644 58.7386Z" fill="black"/>
<path d="M606.759 68.7545L612.823 56.6704L615.217 57.8717L613.924 60.4497L613.348 60.5064C613.671 60.169 614.055 59.8817 614.501 59.6443C614.962 59.4147 615.453 59.258 615.975 59.1743C616.521 59.0829 617.058 59.0645 617.588 59.1191C618.133 59.1813 618.643 59.3318 619.119 59.5705C619.81 59.917 620.358 60.3363 620.764 60.8283C621.17 61.3202 621.427 61.8811 621.533 62.5109C621.64 63.1406 621.597 63.8393 621.404 64.6068L621.082 64.3299L621.439 64.0195C621.785 63.7513 622.181 63.5368 622.626 63.3763C623.095 63.208 623.583 63.0974 624.089 63.0444C624.596 62.9914 625.099 63.0037 625.598 63.0812C626.097 63.1587 626.554 63.3014 626.968 63.5093C627.873 63.9637 628.525 64.5213 628.923 65.1822C629.337 65.8508 629.501 66.6342 629.415 67.5324C629.345 68.4383 629.028 69.4513 628.466 70.5715L624.828 77.8219L622.434 76.6206L626.003 69.5083C626.35 68.8178 626.539 68.2115 626.57 67.6894C626.625 67.1597 626.529 66.6989 626.284 66.307C626.039 65.915 625.64 65.5805 625.088 65.3032C624.658 65.0876 624.213 64.9603 623.753 64.9212C623.315 64.8745 622.893 64.9123 622.486 65.0345C622.078 65.1568 621.71 65.3559 621.379 65.6318C621.056 65.8924 620.791 66.2298 620.583 66.6441L616.956 73.8715L614.562 72.6702L618.154 65.5119C618.47 64.8827 618.644 64.3071 618.675 63.7851C618.714 63.2477 618.615 62.7753 618.378 62.368C618.14 61.9608 617.769 61.6301 617.262 61.3759C616.833 61.1603 616.395 61.0368 615.95 61.0055C615.512 60.9587 615.09 60.9965 614.683 61.1188C614.283 61.2257 613.918 61.4171 613.588 61.693C613.265 61.9536 613.003 62.2834 612.803 62.6823L609.153 69.9558L606.759 68.7545Z" fill="black"/>
<path d="M655.329 95.9551C654.395 95.3447 653.708 94.5272 653.27 93.5027C652.847 92.4875 652.696 91.3842 652.818 90.1926C652.941 89.0009 653.368 87.8446 654.1 86.7235C654.842 85.5881 655.73 84.7323 656.762 84.156C657.819 83.5748 658.907 83.2909 660.026 83.3044C661.16 83.3272 662.222 83.6627 663.214 84.3106C663.803 84.6956 664.286 85.134 664.662 85.6258C665.038 86.1176 665.302 86.6389 665.455 87.1899C665.631 87.7359 665.703 88.2852 665.67 88.8379C665.651 89.4 665.521 89.9298 665.278 90.4273L664.894 89.9308L666.81 86.9988L669.052 88.4638L661.657 99.7823L659.415 98.3173L661.176 95.6224L661.792 95.8096C661.452 96.1413 661.023 96.4048 660.506 96.6C660.013 96.7903 659.464 96.893 658.859 96.9081C658.269 96.9326 657.666 96.8668 657.05 96.7106C656.449 96.5638 655.875 96.3119 655.329 95.9551ZM657.249 94.2873C657.925 94.7287 658.629 94.9531 659.362 94.9606C660.096 94.9681 660.794 94.7783 661.457 94.3912C662.144 93.9991 662.732 93.4294 663.22 92.682C663.699 91.949 663.975 91.1965 664.049 90.4244C664.137 89.6616 664.031 88.9459 663.729 88.2773C663.428 87.6087 662.939 87.0537 662.264 86.6123C661.603 86.1803 660.905 85.9606 660.172 85.9531C659.453 85.955 658.755 86.1447 658.077 86.5224C657.414 86.9095 656.843 87.4696 656.364 88.2026C655.876 88.95 655.583 89.7122 655.485 90.4893C655.411 91.2614 655.518 91.9771 655.805 92.6364C656.107 93.305 656.588 93.8553 657.249 94.2873Z" fill="black"/>
<path d="M673.107 107.671L681.21 96.8471L683.333 98.4366L681.666 100.663L681.11 100.633C681.608 100.255 682.205 100.015 682.902 99.9152C683.609 99.8013 684.33 99.8264 685.065 99.9905C685.81 100.141 686.472 100.432 687.049 100.864C687.874 101.482 688.437 102.161 688.74 102.902C689.053 103.63 689.1 104.427 688.882 105.292C688.663 106.158 688.178 107.092 687.427 108.095L682.488 114.693L680.365 113.103L685.195 106.65C685.658 106.032 685.956 105.461 686.09 104.939C686.233 104.403 686.2 103.918 685.99 103.482C685.791 103.032 685.426 102.631 684.897 102.278C684.485 101.969 684.056 101.755 683.609 101.635C683.173 101.501 682.737 101.454 682.301 101.492C681.878 101.54 681.473 101.666 681.086 101.869C680.722 102.068 680.406 102.347 680.139 102.704L675.231 109.26L674.18 108.473C674.001 108.34 673.822 108.206 673.643 108.072C673.465 107.938 673.286 107.805 673.107 107.671Z" fill="black"/>
<path d="M704.763 133.033L713.879 122.841L716.951 125.588L707.834 135.78L704.763 133.033ZM717.218 122.199C716.642 121.684 716.308 121.143 716.215 120.577C716.147 120.009 716.342 119.469 716.8 118.957C717.212 118.497 717.716 118.268 718.312 118.271C718.908 118.275 719.488 118.528 720.051 119.032C720.627 119.547 720.948 120.088 721.017 120.656C721.096 121.211 720.913 121.738 720.466 122.237C720.043 122.71 719.533 122.945 718.937 122.942C718.354 122.95 717.781 122.702 717.218 122.199Z" fill="black"/>
<path d="M715.798 143.069L725.411 133.343L728.195 136.095L726.332 138.164L725.528 137.804C726.097 137.497 726.727 137.336 727.419 137.32C728.136 137.303 728.847 137.427 729.552 137.69C730.258 137.952 730.879 138.349 731.417 138.881C732.149 139.605 732.615 140.367 732.814 141.167C733.025 141.955 732.963 142.775 732.628 143.626C732.305 144.466 731.721 145.313 730.876 146.168L724.975 152.139L722.026 149.224L727.692 143.491C728.078 143.101 728.343 142.723 728.487 142.358C728.63 141.993 728.646 141.634 728.535 141.283C728.448 140.931 728.234 140.599 727.892 140.285C727.636 140.032 727.355 139.839 727.051 139.707C726.759 139.563 726.455 139.492 726.139 139.494C725.836 139.484 725.538 139.528 725.248 139.627C724.969 139.738 724.715 139.909 724.486 140.141L718.729 145.966L717.282 144.535C716.94 144.198 716.647 143.908 716.403 143.667C716.159 143.425 715.957 143.226 715.798 143.069Z" fill="black"/>
<path d="M733.527 161.029L743.726 151.92L746.334 154.839L744.345 156.788L743.565 156.379C744.152 156.108 744.791 155.987 745.483 156.013C746.199 156.042 746.901 156.209 747.589 156.515C748.277 156.822 748.872 157.257 749.375 157.82C750.061 158.588 750.479 159.378 750.628 160.189C750.789 160.988 750.676 161.803 750.289 162.632C749.915 163.45 749.279 164.259 748.383 165.06L742.121 170.652L739.359 167.559L745.371 162.19C745.781 161.824 746.069 161.464 746.235 161.108C746.401 160.753 746.439 160.396 746.35 160.039C746.285 159.682 746.092 159.337 745.77 159.003C745.53 158.734 745.262 158.524 744.967 158.374C744.684 158.212 744.385 158.122 744.07 158.104C743.768 158.075 743.468 158.1 743.172 158.181C742.887 158.274 742.623 158.43 742.379 158.647L736.271 164.102L734.916 162.585C734.596 162.226 734.321 161.919 734.093 161.663C733.864 161.406 733.675 161.195 733.527 161.029Z" fill="black"/>
<path d="M753.882 185.275C753.001 184.155 752.458 182.966 752.254 181.707C752.06 180.461 752.179 179.253 752.612 178.082C753.056 176.924 753.818 175.921 754.897 175.071C755.976 174.222 757.131 173.718 758.36 173.559C759.6 173.413 760.803 173.581 761.968 174.062C763.144 174.557 764.172 175.364 765.053 176.484C765.935 177.604 766.472 178.787 766.666 180.033C766.87 181.292 766.751 182.5 766.307 183.658C765.863 184.815 765.102 185.818 764.022 186.668C762.943 187.517 761.789 188.021 760.559 188.18C759.33 188.34 758.127 188.172 756.952 187.677C755.786 187.196 754.763 186.395 753.882 185.275ZM756.675 183.077C757.057 183.563 757.518 183.899 758.058 184.086C758.599 184.273 759.163 184.309 759.751 184.196C760.339 184.083 760.898 183.807 761.427 183.369C761.977 182.958 762.376 182.48 762.625 181.935C762.886 181.379 762.99 180.817 762.936 180.248C762.881 179.679 762.663 179.152 762.281 178.666C761.899 178.18 761.432 177.837 760.881 177.637C760.341 177.451 759.77 177.419 759.169 177.543C758.581 177.656 758.022 177.932 757.493 178.37C756.943 178.781 756.543 179.259 756.295 179.804C756.047 180.349 755.95 180.906 756.004 181.475C756.069 182.058 756.293 182.592 756.675 183.077Z" fill="black"/>
<path d="M767.844 203.535L775.827 191.047L778.424 194.793L771.957 203.411L771.3 202.644L781.783 199.641L784.35 203.345L769.692 206.202L767.844 203.535Z" fill="black"/>
<path d="M781.298 224.384C780.703 223.4 780.427 222.363 780.471 221.273C780.538 220.19 780.889 219.145 781.525 218.139C782.175 217.123 783.081 216.265 784.241 215.563C785.432 214.844 786.62 214.437 787.806 214.341C788.992 214.246 790.082 214.44 791.076 214.922C792.085 215.396 792.896 216.14 793.508 217.154C793.846 217.712 794.072 218.268 794.185 218.821C794.308 219.389 794.329 219.938 794.248 220.468C794.182 220.989 794.034 221.49 793.803 221.971C793.586 222.443 793.301 222.866 792.946 223.242L792.594 222.461L795.371 220.782L797.489 224.287L785.787 231.361L783.628 227.791L786.449 226.085L786.951 226.865C786.469 226.997 785.964 227.041 785.437 226.999C784.909 226.956 784.391 226.828 783.881 226.615C783.37 226.402 782.893 226.109 782.447 225.736C782.001 225.364 781.618 224.913 781.298 224.384ZM784.86 223.555C785.188 224.099 785.598 224.494 786.087 224.739C786.577 224.985 787.116 225.081 787.705 225.026C788.308 224.962 788.926 224.739 789.557 224.357C790.189 223.975 790.666 223.536 790.988 223.041C791.325 222.536 791.499 222.01 791.509 221.462C791.533 220.905 791.381 220.355 791.053 219.812C790.733 219.283 790.321 218.9 789.817 218.663C789.336 218.432 788.794 218.349 788.191 218.412C787.602 218.467 786.992 218.686 786.36 219.068C785.728 219.45 785.244 219.893 784.907 220.397C784.584 220.893 784.414 221.408 784.395 221.941C784.385 222.488 784.54 223.027 784.86 223.555Z" fill="black"/>
<path d="M792.789 243.813L807.918 235.788L809.849 239.428L794.72 247.453L792.789 243.813ZM800.55 236.956L803.735 235.267L808.044 243.388L804.859 245.078L800.55 236.956Z" fill="black"/>
<path d="M803.433 265.574C802.835 264.281 802.582 262.998 802.674 261.726C802.774 260.469 803.17 259.321 803.862 258.282C804.562 257.259 805.535 256.459 806.781 255.882C808.028 255.306 809.268 255.082 810.501 255.212C811.741 255.357 812.872 255.799 813.894 256.537C814.923 257.29 815.737 258.313 816.335 259.607C816.934 260.9 817.183 262.175 817.083 263.432C816.991 264.704 816.595 265.852 815.895 266.875C815.196 267.899 814.223 268.699 812.976 269.275C811.729 269.852 810.49 270.075 809.257 269.946C808.024 269.816 806.893 269.374 805.864 268.621C804.841 267.883 804.031 266.868 803.433 265.574ZM806.659 264.082C806.918 264.643 807.289 265.077 807.771 265.384C808.253 265.69 808.794 265.857 809.392 265.882C809.991 265.908 810.598 265.769 811.214 265.465C811.844 265.193 812.344 264.82 812.711 264.347C813.095 263.867 813.326 263.344 813.404 262.778C813.483 262.212 813.393 261.649 813.133 261.088C812.874 260.527 812.499 260.085 812.01 259.763C811.527 259.456 810.979 259.294 810.365 259.275C809.767 259.249 809.16 259.388 808.544 259.692C807.913 259.965 807.414 260.338 807.046 260.81C806.678 261.283 806.455 261.802 806.377 262.368C806.305 262.95 806.399 263.521 806.659 264.082Z" fill="black"/>
<path d="M811.23 282.67L823.935 277.613L825.383 281.25L821.31 283.065L821.814 282.033C822.576 281.952 823.314 282.018 824.028 282.233C824.748 282.464 825.385 282.811 825.939 283.274C826.493 283.738 826.903 284.304 827.169 284.974C827.284 285.261 827.365 285.534 827.412 285.792C827.466 286.067 827.502 286.32 827.521 286.553L822.866 287.186C822.908 286.966 822.901 286.691 822.844 286.363C822.809 286.044 822.729 285.725 822.602 285.406C822.462 285.055 822.268 284.754 822.02 284.501C821.788 284.243 821.519 284.054 821.213 283.935C820.907 283.817 820.577 283.754 820.223 283.747C819.876 283.756 819.51 283.837 819.128 283.989L812.763 286.522L811.23 282.67Z" fill="black"/>
<path d="M818.09 301.481C817.902 300.947 817.911 300.48 818.116 300.08C818.337 299.675 818.74 299.369 819.323 299.164C819.857 298.976 820.349 298.976 820.797 299.164C821.245 299.352 821.558 299.697 821.734 300.2C821.922 300.734 821.906 301.204 821.684 301.609C821.479 302.009 821.085 302.312 820.502 302.517C819.968 302.705 819.476 302.705 819.028 302.517C818.579 302.329 818.267 301.984 818.09 301.481Z" fill="black"/>
<path d="M826.891 328.445L839.939 324.903L840.634 327.463L827.586 331.005L826.891 328.445ZM843.159 325.363C843.011 324.816 843.037 324.356 843.238 323.981C843.438 323.606 843.796 323.349 844.309 323.21C844.79 323.079 845.22 323.123 845.599 323.34C845.983 323.574 846.246 323.956 846.39 324.486C846.539 325.033 846.513 325.493 846.312 325.868C846.111 326.243 845.754 326.5 845.24 326.639C844.76 326.77 844.328 326.718 843.944 326.484C843.565 326.267 843.303 325.893 843.159 325.363Z" fill="black"/>
<path d="M834.532 362.632C834.337 361.534 834.462 360.474 834.907 359.453C835.356 358.448 836.056 357.582 837.008 356.855C837.96 356.127 839.095 355.646 840.413 355.411C841.748 355.173 842.98 355.232 844.107 355.589C845.254 355.96 846.207 356.558 846.964 357.382C847.724 358.223 848.208 359.227 848.416 360.393C848.54 361.086 848.551 361.738 848.451 362.349C848.35 362.96 848.152 363.51 847.855 363.999C847.579 364.501 847.228 364.93 846.803 365.285C846.381 365.656 845.905 365.924 845.376 366.088L845.475 365.469L848.923 364.855L849.393 367.491L836.083 369.863L835.613 367.227L838.782 366.662L839.068 367.239C838.594 367.219 838.108 367.087 837.611 366.844C837.134 366.615 836.683 366.286 836.258 365.856C835.836 365.443 835.47 364.959 835.162 364.403C834.857 363.865 834.647 363.275 834.532 362.632ZM837.063 362.888C837.205 363.682 837.524 364.349 838.021 364.888C838.518 365.427 839.135 365.806 839.871 366.023C840.628 366.255 841.445 366.292 842.324 366.135C843.186 365.982 843.924 365.667 844.537 365.192C845.152 364.733 845.6 364.165 845.881 363.487C846.161 362.809 846.23 362.073 846.089 361.279C845.95 360.501 845.632 359.843 845.135 359.304C844.641 358.782 844.024 358.403 843.285 358.169C842.549 357.951 841.749 357.919 840.887 358.073C840.008 358.23 839.253 358.539 838.62 359C838.007 359.476 837.559 360.044 837.276 360.705C836.995 361.382 836.924 362.11 837.063 362.888Z" fill="black"/>
<path d="M838.307 383.55L851.76 382.199L852.027 384.864L849.158 385.152L848.801 384.696C849.259 384.788 849.708 384.959 850.147 385.208C850.588 385.474 850.983 385.805 851.334 386.202C851.703 386.613 852.006 387.057 852.244 387.534C852.483 388.027 852.63 388.539 852.683 389.069C852.76 389.837 852.7 390.525 852.502 391.131C852.304 391.738 851.967 392.255 851.493 392.682C851.018 393.109 850.405 393.447 849.653 393.695L849.715 393.275L850.168 393.411C850.58 393.559 850.973 393.778 851.347 394.069C851.74 394.374 852.095 394.727 852.411 395.126C852.727 395.526 852.986 395.957 853.188 396.42C853.39 396.883 853.514 397.345 853.56 397.806C853.661 398.814 853.54 399.663 853.195 400.354C852.852 401.061 852.278 401.619 851.474 402.028C850.671 402.453 849.646 402.729 848.399 402.854L840.327 403.665L840.06 401L847.978 400.205C848.746 400.127 849.359 399.962 849.817 399.709C850.294 399.472 850.632 399.144 850.832 398.727C851.031 398.311 851.1 397.795 851.038 397.18C850.99 396.701 850.86 396.257 850.646 395.847C850.451 395.453 850.193 395.116 849.872 394.838C849.55 394.56 849.185 394.355 848.774 394.223C848.382 394.09 847.954 394.047 847.493 394.093L839.447 394.901L839.18 392.236L847.149 391.436C847.849 391.366 848.428 391.204 848.886 390.951C849.361 390.696 849.706 390.36 849.923 389.941C850.14 389.522 850.22 389.031 850.164 388.467C850.115 387.989 849.985 387.554 849.773 387.161C849.579 386.766 849.32 386.43 848.999 386.151C848.695 385.871 848.338 385.666 847.928 385.534C847.535 385.401 847.116 385.357 846.672 385.402L838.575 386.215L838.307 383.55Z" fill="black"/>
<path d="M841.35 439.134C841.365 438.018 841.688 437.001 842.318 436.082C842.949 435.181 843.8 434.462 844.872 433.927C845.943 433.393 847.149 433.134 848.488 433.152C849.844 433.171 851.042 433.462 852.082 434.025C853.139 434.606 853.961 435.373 854.549 436.325C855.137 437.295 855.423 438.372 855.407 439.556C855.397 440.26 855.285 440.902 855.071 441.483C854.858 442.064 854.559 442.567 854.175 442.991C853.809 443.432 853.383 443.787 852.899 444.055C852.414 444.34 851.897 444.514 851.347 444.575L851.561 443.985L855.063 444.033L855.026 446.711L841.507 446.528L841.544 443.85L844.762 443.893L844.934 444.514C844.472 444.404 844.02 444.184 843.578 443.852C843.153 443.537 842.772 443.128 842.436 442.626C842.099 442.14 841.832 441.596 841.634 440.992C841.436 440.406 841.341 439.786 841.35 439.134ZM843.787 439.862C843.776 440.669 843.964 441.384 844.35 442.008C844.737 442.631 845.271 443.119 845.953 443.472C846.652 443.842 847.448 444.033 848.34 444.045C849.216 444.057 849.999 443.887 850.691 443.536C851.382 443.202 851.93 442.728 852.333 442.116C852.736 441.503 852.943 440.793 852.954 439.986C852.965 439.197 852.777 438.49 852.39 437.867C852.004 437.261 851.469 436.773 850.788 436.403C850.106 436.05 849.327 435.868 848.451 435.856C847.559 435.844 846.758 436.005 846.05 436.339C845.358 436.69 844.811 437.163 844.408 437.759C844.004 438.371 843.798 439.073 843.787 439.862Z" fill="black"/>
<path d="M840.979 460.423L854.459 461.468L854.254 464.112L851.481 463.898L851.208 463.411C851.794 463.629 852.316 464.005 852.774 464.54C853.249 465.076 853.614 465.699 853.869 466.407C854.141 467.117 854.249 467.832 854.194 468.551C854.114 469.578 853.842 470.418 853.378 471.07C852.932 471.725 852.284 472.191 851.436 472.47C850.588 472.748 849.539 472.839 848.289 472.742L840.073 472.105L840.278 469.461L848.315 470.084C849.085 470.144 849.726 470.09 850.239 469.923C850.768 469.757 851.161 469.469 851.416 469.059C851.689 468.649 851.833 468.127 851.848 467.491C851.888 466.977 851.839 466.5 851.701 466.058C851.58 465.619 851.386 465.225 851.121 464.877C850.853 464.546 850.53 464.272 850.151 464.053C849.788 463.852 849.384 463.735 848.939 463.7L840.774 463.068L840.875 461.758C840.892 461.536 840.91 461.313 840.927 461.09C840.944 460.868 840.961 460.645 840.979 460.423Z" fill="black"/>
<path d="M835.503 505.456C835.707 504.324 836.185 503.363 836.938 502.575C837.705 501.806 838.66 501.254 839.802 500.919C840.961 500.588 842.208 500.542 843.542 500.783C844.911 501.03 846.072 501.51 847.025 502.223C847.978 502.936 848.668 503.802 849.094 504.821C849.538 505.843 849.654 506.937 849.444 508.103C849.328 508.745 849.13 509.311 848.85 509.801C848.566 510.308 848.219 510.734 847.808 511.078C847.414 511.426 846.971 511.704 846.48 511.912C846.006 512.123 845.511 512.252 844.997 512.298L845.249 511.48L848.443 512.057L847.715 516.086L834.258 513.658L834.999 509.552L838.243 510.137L838.104 511.054C837.655 510.834 837.247 510.533 836.879 510.153C836.512 509.773 836.207 509.334 835.965 508.837C835.724 508.339 835.559 507.804 835.47 507.229C835.382 506.655 835.393 506.064 835.503 505.456ZM838.723 507.188C838.61 507.813 838.656 508.38 838.861 508.888C839.066 509.396 839.407 509.824 839.885 510.172C840.38 510.523 840.991 510.764 841.717 510.895C842.444 511.026 843.092 511.012 843.661 510.854C844.248 510.698 844.726 510.418 845.095 510.013C845.482 509.612 845.731 509.099 845.844 508.474C845.954 507.865 845.898 507.306 845.676 506.795C845.468 506.303 845.117 505.882 844.622 505.531C844.144 505.183 843.542 504.944 842.815 504.813C842.089 504.682 841.432 504.694 840.846 504.85C840.276 505.009 839.808 505.282 839.442 505.669C839.072 506.074 838.832 506.58 838.723 507.188Z" fill="black"/>
<path d="M830.075 531.501C830.361 530.351 830.907 529.399 831.714 528.645C832.534 527.911 833.525 527.414 834.686 527.155C835.864 526.9 837.12 526.938 838.452 527.27C839.785 527.601 840.904 528.154 841.808 528.928C842.729 529.705 843.378 530.619 843.754 531.667C844.13 532.716 844.172 533.824 843.882 534.99C843.733 535.59 843.498 536.142 843.178 536.646C842.858 537.15 842.484 537.588 842.055 537.959C841.627 538.33 841.169 538.605 840.682 538.785C840.212 538.969 839.754 539.032 839.308 538.974L839.319 537.968L847.866 540.095L846.865 544.119L828.372 539.516L829.299 535.793L832.378 536.32L832.054 537.089C831.65 536.935 831.292 536.669 830.979 536.291C830.662 535.929 830.408 535.494 830.216 534.986C830.04 534.482 829.94 533.926 829.914 533.319C829.868 532.723 829.921 532.117 830.075 531.501ZM833.144 533.353C832.99 533.969 833.007 534.539 833.195 535.064C833.383 535.588 833.715 536.034 834.19 536.4C834.661 536.782 835.254 537.063 835.971 537.241C836.704 537.423 837.368 537.456 837.963 537.339C838.555 537.238 839.056 537 839.468 536.625C839.88 536.25 840.162 535.754 840.316 535.138C840.469 534.521 840.452 533.951 840.264 533.426C840.072 532.918 839.74 532.473 839.27 532.091C838.799 531.708 838.197 531.426 837.464 531.243C836.747 531.065 836.091 531.034 835.496 531.152C834.901 531.269 834.399 531.507 833.991 531.865C833.58 532.24 833.297 532.736 833.144 533.353Z" fill="black"/>
<path d="M823.596 556.172L838.358 554.843L836.984 559.189L826.211 559.349L826.416 558.36L835.207 564.812L833.848 569.109L822.618 559.266L823.596 556.172Z" fill="black"/>
<path d="M814.787 580.931C815.329 579.521 816.081 578.403 817.042 577.577C818.019 576.757 819.107 576.246 820.307 576.045C821.522 575.85 822.763 575.996 824.029 576.482C825.006 576.858 825.842 577.363 826.536 577.998C827.23 578.632 827.763 579.352 828.134 580.157C828.522 580.968 828.725 581.827 828.743 582.736C828.772 583.666 828.605 584.605 828.241 585.55C827.896 586.448 827.422 587.203 826.818 587.817C826.208 588.447 825.51 588.924 824.724 589.247C823.937 589.57 823.096 589.725 822.2 589.712C821.304 589.699 820.397 589.497 819.48 589.108L818.456 588.687L822.363 578.518L824.739 578.797L821.82 586.393L821.52 585.809L822.001 585.994C822.414 586.116 822.816 586.123 823.207 586.016C823.607 585.93 823.963 585.745 824.275 585.461C824.587 585.176 824.829 584.809 825.002 584.36C825.242 583.735 825.32 583.149 825.236 582.602C825.162 582.077 824.927 581.61 824.533 581.2C824.154 580.798 823.621 580.464 822.931 580.199C822.226 579.928 821.554 579.835 820.914 579.92C820.284 580.028 819.717 580.306 819.213 580.756C818.703 581.222 818.297 581.848 817.995 582.633C817.786 583.178 817.681 583.69 817.681 584.168C817.675 584.662 817.769 585.232 817.963 585.876L814.722 586.7C814.48 586.037 814.331 585.373 814.274 584.707C814.217 584.041 814.238 583.388 814.338 582.745C814.416 582.113 814.565 581.508 814.787 580.931Z" fill="black"/>
<path d="M808.022 598.385L820.457 604.075L818.828 607.634L816.246 606.594L816.308 605.716C816.791 606.145 817.159 606.682 817.412 607.326C817.673 607.993 817.801 608.703 817.796 609.456C817.792 610.209 817.632 610.929 817.318 611.616C816.889 612.553 816.333 613.252 815.65 613.713C814.982 614.182 814.191 614.405 813.276 614.383C812.377 614.368 811.381 614.11 810.288 613.61L802.654 610.117L804.379 606.347L811.709 609.701C812.208 609.929 812.654 610.048 813.046 610.058C813.438 610.068 813.78 609.96 814.072 609.735C814.373 609.532 814.611 609.217 814.789 608.788C814.939 608.46 815.023 608.131 815.043 607.8C815.078 607.476 815.04 607.166 814.93 606.87C814.835 606.581 814.692 606.317 814.499 606.078C814.299 605.855 814.051 605.675 813.755 605.539L806.308 602.132L807.154 600.282C807.354 599.844 807.526 599.47 807.669 599.157C807.812 598.845 807.93 598.588 808.022 598.385Z" fill="black"/>
<path d="M796.673 622.178L811.834 630.142L809.918 633.79L794.757 625.826L796.673 622.178ZM806.713 624.718L809.905 626.394L805.63 634.534L802.438 632.857L806.713 624.718Z" fill="black"/>
<path d="M785.6 641.705C786.119 640.835 786.748 640.201 787.486 639.802C788.23 639.426 789.057 639.28 789.967 639.363C790.868 639.461 791.813 639.805 792.8 640.394L800.054 644.724L797.929 648.284L791.162 644.245C790.69 643.963 790.241 643.795 789.814 643.74C789.387 643.685 788.989 643.748 788.622 643.928C788.269 644.118 787.969 644.419 787.723 644.831C787.538 645.141 787.422 645.452 787.376 645.764C787.321 646.091 787.329 646.396 787.4 646.678C787.477 646.984 787.603 647.259 787.777 647.503C787.966 647.756 788.208 647.971 788.503 648.147L795.513 652.331L793.388 655.891L781.646 648.882L783.639 645.543L786.142 646.827L786.011 647.649C785.556 647.138 785.231 646.543 785.035 645.867C784.854 645.199 784.803 644.498 784.88 643.765C784.973 643.04 785.213 642.354 785.6 641.705Z" fill="black"/>
<path d="M774.995 659.326L786.338 666.964L784.152 670.211L780.356 667.872L781.492 667.706C781.99 668.289 782.351 668.936 782.576 669.647C782.792 670.371 782.865 671.093 782.795 671.812C782.725 672.53 782.488 673.189 782.086 673.787C781.913 674.043 781.734 674.264 781.547 674.449C781.351 674.648 781.162 674.821 780.98 674.968L777.832 671.482C778.037 671.392 778.259 671.231 778.499 670.999C778.742 670.791 778.96 670.544 779.152 670.259C779.363 669.946 779.503 669.616 779.571 669.268C779.653 668.931 779.657 668.602 779.583 668.283C779.508 667.963 779.374 667.656 779.18 667.359C778.976 667.078 778.704 666.822 778.362 666.591L772.68 662.765L774.995 659.326Z" fill="black"/>
<path d="M760.134 679.968C761.045 678.762 762.077 677.895 763.229 677.367C764.395 676.85 765.582 676.66 766.79 676.798C768.012 676.947 769.164 677.43 770.246 678.248C771.082 678.879 771.745 679.596 772.237 680.397C772.728 681.199 773.041 682.038 773.175 682.914C773.323 683.801 773.281 684.683 773.047 685.561C772.818 686.463 772.397 687.319 771.787 688.127C771.207 688.894 770.542 689.489 769.792 689.912C769.032 690.349 768.229 690.614 767.384 690.707C766.539 690.8 765.688 690.716 764.83 690.456C763.973 690.195 763.157 689.751 762.383 689.123L761.515 688.435L768.083 679.744L770.289 680.668L765.383 687.161L765.256 686.517L765.667 686.827C766.03 687.059 766.415 687.177 766.82 687.182C767.228 687.211 767.622 687.132 768 686.944C768.378 686.757 768.713 686.471 769.002 686.087C769.406 685.553 769.643 685.012 769.714 684.462C769.788 683.937 769.692 683.424 769.426 682.921C769.173 682.429 768.753 681.961 768.164 681.516C767.561 681.06 766.941 680.785 766.302 680.69C765.667 680.619 765.045 680.73 764.436 681.023C763.817 681.33 763.254 681.819 762.747 682.49C762.395 682.956 762.153 683.419 762.021 683.879C761.878 684.352 761.811 684.925 761.819 685.598L758.477 685.493C758.428 684.789 758.468 684.11 758.597 683.454C758.727 682.799 758.928 682.176 759.201 681.587C759.451 681 759.762 680.461 760.134 679.968Z" fill="black"/>
<path d="M748.774 694.836L759.219 703.662L756.692 706.652L753.173 703.914L754.321 703.873C754.752 704.506 755.04 705.189 755.187 705.92C755.323 706.664 755.317 707.389 755.169 708.096C755.021 708.803 754.715 709.431 754.249 709.982C754.05 710.218 753.847 710.418 753.642 710.582C753.425 710.758 753.218 710.909 753.022 711.036L750.272 707.228C750.485 707.161 750.724 707.026 750.987 706.821C751.252 706.64 751.495 706.419 751.717 706.156C751.96 705.868 752.135 705.555 752.241 705.217C752.359 704.89 752.399 704.564 752.359 704.238C752.32 703.913 752.22 703.592 752.059 703.277C751.888 702.974 751.645 702.69 751.33 702.424L746.097 698.003L748.774 694.836Z" fill="black"/>
<path d="M735.412 709.75C735.794 709.332 736.211 709.12 736.66 709.112C737.122 709.116 737.581 709.327 738.036 709.745C738.454 710.128 738.685 710.562 738.73 711.046C738.776 711.53 738.619 711.968 738.259 712.36C737.876 712.778 737.454 712.985 736.992 712.98C736.542 712.988 736.09 712.782 735.634 712.365C735.217 711.982 734.985 711.548 734.94 711.064C734.895 710.58 735.052 710.142 735.412 709.75Z" fill="black"/>
<path d="M715.772 730.214L725.043 740.055L723.112 741.874L713.841 732.033L715.772 730.214ZM726.154 743.113C726.567 742.724 726.985 742.53 727.41 742.531C727.836 742.531 728.231 742.725 728.596 743.112C728.937 743.475 729.101 743.875 729.088 744.311C729.063 744.76 728.85 745.173 728.45 745.549C728.038 745.938 727.619 746.132 727.194 746.131C726.769 746.131 726.374 745.937 726.009 745.549C725.667 745.187 725.509 744.782 725.535 744.333C725.548 743.896 725.754 743.489 726.154 743.113Z" fill="black"/>
<path d="M689.215 753.059C690.092 752.368 691.086 751.979 692.197 751.892C693.294 751.815 694.388 752.024 695.478 752.521C696.568 753.018 697.527 753.792 698.355 754.844C699.194 755.91 699.722 757.024 699.938 758.187C700.151 759.374 700.072 760.495 699.702 761.552C699.318 762.618 698.661 763.518 697.73 764.251C697.177 764.686 696.607 765.004 696.021 765.203C695.435 765.402 694.857 765.486 694.286 765.455C693.712 765.447 693.168 765.34 692.655 765.132C692.129 764.935 691.668 764.642 691.275 764.252L691.867 764.048L694.034 766.8L691.929 768.456L683.567 757.833L685.671 756.176L687.662 758.706L687.288 759.229C687.082 758.802 686.97 758.311 686.95 757.759C686.927 757.23 687.005 756.677 687.184 756.099C687.349 755.532 687.604 754.982 687.949 754.448C688.28 753.926 688.702 753.462 689.215 753.059ZM690.182 755.411C689.548 755.91 689.11 756.506 688.869 757.199C688.627 757.891 688.584 758.614 688.739 759.366C688.891 760.142 689.243 760.881 689.795 761.582C690.337 762.27 690.962 762.772 691.67 763.089C692.364 763.416 693.077 763.544 693.807 763.472C694.536 763.4 695.218 763.114 695.852 762.615C696.473 762.127 696.904 761.536 697.145 760.844C697.373 760.162 697.417 759.439 697.275 758.677C697.12 757.925 696.772 757.205 696.23 756.517C695.678 755.815 695.049 755.294 694.344 754.953C693.636 754.637 692.924 754.509 692.208 754.571C691.478 754.643 690.802 754.923 690.182 755.411Z" fill="black"/>
<path d="M672.542 766.241L680.071 777.472L677.846 778.963L676.24 776.567L676.474 776.038C676.609 776.485 676.669 776.961 676.656 777.466C676.629 777.981 676.523 778.486 676.339 778.981C676.15 779.501 675.901 779.978 675.593 780.412C675.27 780.855 674.888 781.225 674.446 781.522C673.804 781.952 673.169 782.223 672.541 782.334C671.912 782.445 671.298 782.392 670.697 782.174C670.097 781.957 669.51 781.575 668.937 781.029L669.337 780.885L669.431 781.349C669.494 781.782 669.486 782.232 669.406 782.699C669.321 783.19 669.177 783.669 668.974 784.136C668.77 784.603 668.512 785.035 668.199 785.431C667.885 785.827 667.536 786.154 667.151 786.412C666.31 786.976 665.504 787.268 664.732 787.289C663.947 787.32 663.184 787.077 662.445 786.56C661.691 786.052 660.965 785.278 660.267 784.237L655.75 777.499L657.975 776.007L662.406 782.617C662.836 783.259 663.271 783.722 663.709 784.007C664.144 784.315 664.592 784.459 665.053 784.439C665.515 784.419 666.003 784.236 666.516 783.892C666.916 783.624 667.246 783.3 667.507 782.918C667.763 782.56 667.938 782.174 668.032 781.76C668.126 781.345 668.135 780.926 668.057 780.503C667.99 780.093 667.827 779.696 667.569 779.311L663.066 772.594L665.29 771.103L669.75 777.755C670.142 778.34 670.558 778.775 670.996 779.059C671.445 779.358 671.905 779.505 672.376 779.499C672.848 779.493 673.319 779.332 673.789 779.016C674.188 778.749 674.511 778.429 674.758 778.057C675.014 777.699 675.189 777.313 675.284 776.898C675.387 776.498 675.401 776.086 675.323 775.663C675.256 775.253 675.097 774.863 674.849 774.492L670.317 767.733L672.542 766.241Z" fill="black"/>
<path d="M624.945 795.109C625.936 794.597 626.985 794.402 628.093 794.526C629.185 794.657 630.219 795.07 631.196 795.763C632.173 796.457 632.969 797.398 633.583 798.588C634.206 799.793 634.514 800.987 634.506 802.169C634.492 803.375 634.203 804.462 633.64 805.429C633.061 806.404 632.246 807.164 631.194 807.707C630.568 808.031 629.949 808.235 629.336 808.32C628.723 808.404 628.139 808.378 627.584 808.239C627.022 808.124 626.509 807.916 626.044 807.615C625.564 807.322 625.167 806.947 624.854 806.49L625.475 806.401L627.083 809.513L624.703 810.742L618.497 798.731L620.876 797.501L622.354 800.361L621.887 800.805C621.766 800.346 621.748 799.843 621.833 799.297C621.91 798.774 622.091 798.245 622.376 797.712C622.646 797.186 623 796.694 623.439 796.235C623.863 795.784 624.365 795.409 624.945 795.109ZM625.45 797.602C624.733 797.972 624.191 798.475 623.823 799.109C623.455 799.744 623.276 800.445 623.286 801.213C623.289 802.004 623.496 802.796 623.906 803.589C624.307 804.367 624.826 804.978 625.462 805.422C626.082 805.875 626.757 806.135 627.488 806.202C628.218 806.269 628.942 806.117 629.659 805.747C630.36 805.384 630.895 804.886 631.263 804.251C631.615 803.624 631.794 802.923 631.799 802.148C631.789 801.38 631.583 800.607 631.181 799.829C630.771 799.036 630.252 798.406 629.624 797.938C628.988 797.493 628.313 797.234 627.598 797.159C626.868 797.092 626.152 797.239 625.45 797.602Z" fill="black"/>
<path d="M590.079 805.619L597.149 823.621L593.505 825.052L592.241 822.256L593.045 822.189C593.14 822.76 593.057 823.346 592.795 823.947C592.533 824.548 592.124 825.105 591.57 825.618C591.005 826.153 590.355 826.565 589.62 826.854C588.533 827.281 587.454 827.373 586.381 827.13C585.314 826.903 584.347 826.389 583.478 825.586C582.6 824.806 581.907 823.769 581.398 822.474C580.896 821.196 580.698 819.964 580.805 818.779C580.895 817.599 581.259 816.553 581.896 815.639C582.523 814.747 583.388 814.084 584.491 813.651C585.21 813.369 585.95 813.235 586.712 813.249C587.474 813.263 588.17 813.415 588.799 813.702C589.429 813.99 589.922 814.377 590.279 814.864L589.524 815.548L586.22 807.134L590.079 805.619ZM586.696 816.52C586.121 816.746 585.671 817.08 585.346 817.521C585.028 817.978 584.846 818.501 584.801 819.091C584.756 819.68 584.868 820.319 585.138 821.006C585.401 821.677 585.75 822.213 586.184 822.614C586.625 823.032 587.114 823.291 587.653 823.394C588.181 823.518 588.741 823.464 589.332 823.232C589.923 823 590.381 822.663 590.706 822.222C591.031 821.781 591.213 821.258 591.252 820.652C591.291 820.047 591.178 819.408 590.915 818.737C590.645 818.05 590.293 817.506 589.859 817.104C589.424 816.703 588.935 816.443 588.39 816.325C587.852 816.223 587.288 816.288 586.696 816.52Z" fill="black"/>
<path d="M561.083 822.006C562.521 821.545 563.864 821.43 565.11 821.661C566.361 821.909 567.441 822.437 568.35 823.245C569.263 824.07 569.927 825.128 570.341 826.42C570.661 827.417 570.791 828.385 570.732 829.324C570.672 830.262 570.445 831.128 570.051 831.922C569.662 832.732 569.119 833.429 568.423 834.013C567.715 834.618 566.879 835.076 565.915 835.385C564.999 835.679 564.113 835.783 563.256 835.697C562.383 835.617 561.574 835.371 560.829 834.961C560.085 834.551 559.437 833.992 558.886 833.286C558.335 832.579 557.923 831.746 557.652 830.788L557.338 829.725L567.711 826.398L568.983 828.424L561.234 830.91L561.501 830.31L561.659 830.801C561.822 831.199 562.069 831.516 562.397 831.754C562.714 832.012 563.082 832.174 563.499 832.239C563.917 832.303 564.354 832.262 564.812 832.115C565.449 831.911 565.955 831.604 566.329 831.196C566.692 830.809 566.909 830.334 566.98 829.77C567.057 829.222 566.983 828.597 566.757 827.894C566.527 827.175 566.178 826.592 565.71 826.147C565.232 825.724 564.659 825.457 563.993 825.346C563.31 825.24 562.568 825.316 561.767 825.573C561.211 825.751 560.747 825.99 560.374 826.29C559.985 826.595 559.6 827.025 559.219 827.58L556.546 825.571C556.912 824.967 557.336 824.434 557.819 823.973C558.302 823.511 558.825 823.118 559.388 822.793C559.929 822.457 560.494 822.195 561.083 822.006Z" fill="black"/>
<path d="M536.938 829.004C538.32 828.654 539.627 828.642 540.861 828.967C542.078 829.296 543.133 829.896 544.027 830.768C544.904 831.644 545.511 832.747 545.849 834.079C546.186 835.41 546.177 836.67 545.823 837.858C545.452 839.05 544.81 840.08 543.896 840.949C542.966 841.823 541.811 842.434 540.429 842.784C539.048 843.134 537.749 843.144 536.532 842.815C535.298 842.49 534.243 841.89 533.366 841.014C532.489 840.138 531.881 839.034 531.544 837.703C531.207 836.371 531.215 835.112 531.57 833.924C531.924 832.736 532.566 831.706 533.496 830.832C534.409 829.963 535.557 829.354 536.938 829.004ZM537.811 832.449C537.212 832.601 536.717 832.885 536.327 833.303C535.937 833.721 535.674 834.221 535.539 834.805C535.403 835.388 535.428 836.01 535.613 836.672C535.765 837.342 536.04 837.901 536.437 838.35C536.838 838.815 537.309 839.138 537.851 839.319C538.393 839.501 538.964 839.516 539.563 839.364C540.162 839.212 540.665 838.925 541.072 838.504C541.462 838.086 541.723 837.577 541.854 836.977C541.989 836.394 541.965 835.771 541.779 835.11C541.627 834.44 541.353 833.881 540.956 833.432C540.559 832.984 540.089 832.669 539.548 832.487C538.989 832.31 538.41 832.297 537.811 832.449Z" fill="black"/>
<path d="M517.669 828.01L521.213 847.023L517.365 847.74L516.651 844.756L517.453 844.842C517.439 845.421 517.246 845.981 516.876 846.522C516.505 847.062 515.999 847.532 515.357 847.931C514.702 848.35 513.986 848.632 513.209 848.777C512.062 848.991 510.984 848.877 509.976 848.437C508.972 848.013 508.119 847.325 507.417 846.373C506.702 845.44 506.217 844.291 505.962 842.924C505.71 841.574 505.749 840.326 506.077 839.183C506.388 838.042 506.943 837.083 507.741 836.305C508.525 835.548 509.5 835.06 510.664 834.843C511.424 834.702 512.176 834.71 512.922 834.868C513.667 835.026 514.322 835.305 514.886 835.707C515.45 836.108 515.861 836.581 516.12 837.127L515.249 837.656L513.593 828.77L517.669 828.01ZM512.289 838.077C511.681 838.19 511.176 838.433 510.774 838.805C510.375 839.193 510.098 839.673 509.942 840.243C509.786 840.814 509.776 841.462 509.912 842.188C510.044 842.896 510.285 843.489 510.636 843.965C510.99 844.458 511.421 844.805 511.93 845.007C512.426 845.229 512.986 845.282 513.61 845.166C514.235 845.049 514.748 844.805 515.15 844.433C515.553 844.061 515.83 843.582 515.982 842.994C516.135 842.407 516.145 841.759 516.013 841.05C515.878 840.324 515.635 839.724 515.284 839.248C514.933 838.772 514.502 838.424 513.989 838.205C513.48 838.003 512.913 837.96 512.289 838.077Z" fill="black"/>
<path d="M492.572 838.042L495.098 856.931L491.014 857.477L488.488 838.588L492.572 838.042Z" fill="black"/>
<path d="M471.052 840.208C472.558 840.083 473.892 840.273 475.054 840.78C476.217 841.303 477.15 842.061 477.853 843.053C478.557 844.063 478.966 845.243 479.079 846.595C479.165 847.638 479.074 848.611 478.805 849.512C478.535 850.413 478.119 851.206 477.556 851.89C476.994 852.592 476.308 853.148 475.498 853.56C474.673 853.991 473.755 854.248 472.746 854.332C471.788 854.412 470.901 854.314 470.085 854.037C469.253 853.762 468.52 853.341 467.887 852.773C467.254 852.206 466.748 851.516 466.37 850.703C465.993 849.89 465.78 848.986 465.731 847.991L465.665 846.885L476.521 845.981L477.303 848.241L469.194 848.917L469.589 848.393L469.632 848.906C469.702 849.331 469.87 849.696 470.137 850.001C470.388 850.325 470.709 850.565 471.101 850.722C471.493 850.879 471.929 850.937 472.408 850.898C473.075 850.842 473.637 850.657 474.093 850.344C474.534 850.049 474.852 849.634 475.049 849.101C475.247 848.585 475.316 847.959 475.255 847.223C475.192 846.471 474.983 845.825 474.628 845.286C474.257 844.765 473.76 844.376 473.135 844.118C472.494 843.861 471.754 843.768 470.915 843.838C470.334 843.886 469.827 844.015 469.397 844.223C468.949 844.432 468.477 844.764 467.981 845.219L465.83 842.659C466.321 842.153 466.855 841.73 467.429 841.389C468.004 841.048 468.602 840.783 469.224 840.593C469.827 840.388 470.436 840.26 471.052 840.208Z" fill="black"/>
<path d="M453.07 847.156L453.178 850.94L444.271 851.195L444.163 847.411L453.07 847.156Z" fill="black"/>
<path d="M433.623 836.367L433.093 855.7L429.18 855.593L429.11 852.525L429.876 852.778C429.74 853.341 429.434 853.848 428.958 854.298C428.482 854.749 427.888 855.102 427.177 855.357C426.448 855.629 425.689 855.754 424.9 855.733C423.733 855.701 422.703 855.363 421.81 854.721C420.917 854.095 420.228 853.243 419.742 852.165C419.239 851.104 419.006 849.878 419.044 848.488C419.082 847.115 419.381 845.903 419.942 844.854C420.487 843.804 421.23 842.983 422.174 842.39C423.1 841.815 424.155 841.543 425.339 841.575C426.112 841.597 426.846 841.763 427.541 842.074C428.237 842.385 428.818 842.796 429.285 843.307C429.752 843.818 430.055 844.367 430.193 844.955L429.231 845.289L429.479 836.253L433.623 836.367ZM426.248 845.078C425.63 845.061 425.086 845.192 424.614 845.471C424.143 845.768 423.771 846.178 423.499 846.703C423.227 847.228 423.08 847.86 423.06 848.598C423.04 849.319 423.152 849.948 423.395 850.488C423.637 851.044 423.986 851.474 424.441 851.779C424.879 852.1 425.416 852.269 426.051 852.286C426.686 852.304 427.239 852.173 427.71 851.894C428.182 851.615 428.553 851.204 428.826 850.662C429.098 850.12 429.245 849.489 429.264 848.768C429.285 848.03 429.173 847.391 428.93 846.852C428.688 846.313 428.339 845.883 427.884 845.561C427.428 845.257 426.883 845.096 426.248 845.078Z" fill="black"/>
<path d="M400.528 840.115C402.033 840.253 403.314 840.672 404.37 841.372C405.425 842.089 406.213 842.997 406.733 844.096C407.251 845.213 407.449 846.446 407.325 847.797C407.23 848.84 406.971 849.782 406.55 850.622C406.128 851.463 405.58 852.172 404.907 852.748C404.232 853.341 403.46 853.771 402.591 854.036C401.703 854.317 400.755 854.411 399.746 854.319C398.789 854.231 397.933 853.98 397.177 853.566C396.405 853.151 395.756 852.609 395.231 851.94C394.706 851.272 394.328 850.504 394.097 849.638C393.866 848.772 393.813 847.845 393.938 846.857L394.064 845.756L404.913 846.749L405.291 849.111L397.187 848.369L397.668 847.922L397.621 848.435C397.616 848.866 397.718 849.254 397.928 849.601C398.119 849.963 398.394 850.256 398.753 850.478C399.112 850.701 399.531 850.834 400.009 850.877C400.676 850.938 401.261 850.854 401.765 850.624C402.25 850.41 402.636 850.057 402.922 849.566C403.207 849.093 403.383 848.488 403.45 847.753C403.519 847.001 403.425 846.328 403.169 845.736C402.894 845.159 402.472 844.689 401.902 844.327C401.314 843.963 400.602 843.742 399.764 843.666C399.183 843.613 398.662 843.651 398.202 843.781C397.724 843.91 397.202 844.156 396.635 844.517L394.96 841.623C395.532 841.21 396.131 840.885 396.756 840.649C397.381 840.413 398.016 840.256 398.661 840.177C399.29 840.08 399.913 840.059 400.528 840.115Z" fill="black"/>
<path d="M381.904 838.311L379.918 851.84L376.045 851.272L376.514 846.838L377.155 847.791C376.844 848.491 376.416 849.097 375.873 849.607C375.313 850.115 374.693 850.492 374.015 850.74C373.336 850.987 372.641 851.059 371.927 850.954C371.621 850.909 371.345 850.843 371.097 850.754C370.833 850.663 370.596 850.568 370.385 850.468L372.168 846.122C372.337 846.268 372.578 846.399 372.891 846.515C373.184 846.644 373.501 846.734 373.84 846.784C374.214 846.839 374.572 846.822 374.915 846.733C375.255 846.662 375.553 846.523 375.809 846.318C376.065 846.113 376.284 845.859 376.467 845.556C376.634 845.25 376.747 844.894 376.807 844.486L377.801 837.709L381.904 838.311Z" fill="black"/>
<path d="M358.737 834.199C360.051 834.46 361.171 834.9 362.098 835.521C363.009 836.139 363.688 836.86 364.138 837.684L361.267 839.321C360.848 838.696 360.336 838.191 359.729 837.809C359.119 837.443 358.519 837.202 357.929 837.085C357.694 837.038 357.478 837.022 357.283 837.036C357.088 837.049 356.923 837.087 356.788 837.148C356.633 837.222 356.511 837.311 356.42 837.416C356.326 837.537 356.262 837.682 356.229 837.851C356.162 838.187 356.262 838.479 356.528 838.724C356.663 838.838 356.896 838.989 357.226 839.177C357.557 839.365 357.985 839.59 358.51 839.851C359.262 840.21 359.906 840.583 360.442 840.969C360.958 841.369 361.364 841.791 361.661 842.234C361.928 842.655 362.113 843.094 362.214 843.552C362.313 844.026 362.309 844.533 362.202 845.072C362.079 845.695 361.824 846.231 361.437 846.679C361.034 847.125 360.552 847.484 359.99 847.758C359.411 848.028 358.784 848.193 358.107 848.251C357.41 848.323 356.716 848.291 356.026 848.154C355.285 848.007 354.594 847.783 353.954 847.481C353.314 847.179 352.737 846.82 352.225 846.404C351.695 845.984 351.245 845.518 350.873 845.007L353.466 843.053C353.712 843.399 354.007 843.72 354.351 844.016C354.675 844.325 355.026 844.587 355.403 844.802C355.781 845.017 356.138 845.157 356.475 845.224C356.728 845.274 356.96 845.294 357.172 845.283C357.364 845.286 357.537 845.251 357.692 845.176C357.843 845.119 357.966 845.029 358.06 844.908C358.151 844.803 358.213 844.667 358.246 844.498C358.28 844.33 358.269 844.162 358.215 843.993C358.144 843.822 358.034 843.669 357.886 843.534C357.738 843.4 357.491 843.229 357.148 843.021C356.8 842.829 356.325 842.578 355.722 842.266C354.974 841.89 354.34 841.511 353.821 841.128C353.302 840.745 352.91 840.335 352.647 839.898C352.434 839.558 352.299 839.181 352.241 838.767C352.179 838.37 352.192 837.952 352.279 837.515C352.449 836.656 352.845 835.938 353.467 835.361C354.068 834.797 354.828 834.405 355.747 834.185C356.663 833.981 357.659 833.986 358.737 834.199Z" fill="black"/>
<path d="M336.043 829.09C337.423 829.447 338.575 830.064 339.501 830.942C340.41 831.815 341.047 832.849 341.412 834.043C341.76 835.233 341.763 836.492 341.419 837.822C341.075 839.152 340.462 840.252 339.58 841.124C338.682 841.991 337.624 842.586 336.405 842.909C335.17 843.228 333.863 843.209 332.483 842.852C331.103 842.496 329.959 841.88 329.05 841.007C328.124 840.129 327.487 839.095 327.139 837.906C326.791 836.716 326.788 835.456 327.132 834.127C327.476 832.797 328.089 831.696 328.971 830.825C329.852 829.953 330.91 829.358 332.146 829.039C333.364 828.716 334.663 828.733 336.043 829.09ZM335.153 832.53C334.555 832.376 333.984 832.388 333.441 832.566C332.898 832.745 332.427 833.058 332.028 833.504C331.629 833.951 331.352 834.509 331.196 835.178C331.008 835.838 330.98 836.461 331.112 837.045C331.241 837.645 331.499 838.156 331.887 838.575C332.275 838.995 332.768 839.282 333.367 839.437C333.965 839.591 334.544 839.582 335.103 839.407C335.646 839.228 336.119 838.907 336.523 838.444C336.922 837.998 337.199 837.44 337.355 836.771C337.543 836.11 337.571 835.488 337.438 834.904C337.306 834.32 337.045 833.818 336.657 833.398C336.253 832.975 335.751 832.685 335.153 832.53Z" fill="black"/>
<path d="M317.86 824.331L313.618 837.332L309.897 836.117L310.637 833.433L311.516 833.395C311.145 833.924 310.654 834.351 310.042 834.675C309.409 835.01 308.718 835.218 307.969 835.299C307.221 835.38 306.487 835.303 305.769 835.069C304.79 834.749 304.032 834.276 303.496 833.65C302.955 833.04 302.643 832.279 302.561 831.367C302.474 830.472 302.617 829.453 302.99 828.311L305.594 820.329L309.536 821.615L307.035 829.278C306.865 829.801 306.797 830.257 306.832 830.648C306.867 831.039 307.013 831.366 307.27 831.63C307.505 831.906 307.846 832.107 308.292 832.235C308.635 832.347 308.972 832.393 309.303 832.375C309.628 832.373 309.932 832.3 310.213 832.157C310.49 832.031 310.735 831.858 310.951 831.64C311.151 831.416 311.301 831.149 311.402 830.839L313.942 823.053L315.877 823.684C316.334 823.833 316.725 823.961 317.052 824.068C317.378 824.174 317.648 824.262 317.86 824.331Z" fill="black"/>
<path d="M293.064 815.49C293.593 815.691 293.944 816 294.117 816.414C294.284 816.845 294.257 817.349 294.037 817.927C293.836 818.457 293.518 818.832 293.085 819.053C292.652 819.274 292.187 819.289 291.69 819.1C291.16 818.899 290.812 818.582 290.645 818.152C290.472 817.737 290.496 817.241 290.716 816.663C290.917 816.133 291.235 815.758 291.668 815.537C292.101 815.316 292.566 815.301 293.064 815.49Z" fill="black"/>
<path d="M266.791 804.8L261.071 817.051L258.668 815.929L264.388 803.678L266.791 804.8ZM258.641 819.213C259.154 819.453 259.489 819.771 259.646 820.166C259.802 820.561 259.768 821 259.543 821.482C259.332 821.933 259.021 822.233 258.611 822.383C258.184 822.525 257.722 822.479 257.225 822.247C256.711 822.007 256.376 821.69 256.22 821.295C256.063 820.9 256.097 820.461 256.323 819.979C256.533 819.527 256.852 819.231 257.278 819.089C257.689 818.94 258.143 818.981 258.641 819.213Z" fill="black"/>
<path d="M240.121 791.307L230.792 807.925L228.479 806.626L237.808 790.009L240.121 791.307Z" fill="black"/>
<path d="M226.683 783.53L219.629 795.064L217.366 793.68L224.42 782.146L226.683 783.53ZM216.972 796.941C217.455 797.236 217.752 797.589 217.864 798C217.975 798.41 217.892 798.842 217.614 799.296C217.354 799.721 217.012 799.984 216.587 800.087C216.148 800.18 215.694 800.084 215.225 799.797C214.741 799.501 214.444 799.148 214.333 798.738C214.221 798.328 214.305 797.896 214.582 797.442C214.842 797.017 215.192 796.758 215.631 796.664C216.056 796.562 216.503 796.654 216.972 796.941Z" fill="black"/>
<path d="M209.828 777.871L208.313 780.329L199.362 781.997L196.402 779.984L209.828 777.871ZM214.205 775.74L203.489 791.499L201.296 790.008L212.011 774.248L214.205 775.74ZM206.666 770.614L207.538 778.4L205.013 778.77L203.855 768.702L206.666 770.614Z" fill="black"/>
<path d="M189.706 757.963C190.806 758.813 191.606 759.8 192.105 760.923C192.58 762.049 192.747 763.209 192.606 764.402C192.452 765.585 191.965 766.706 191.147 767.765C190.496 768.608 189.767 769.27 188.96 769.753C188.153 770.236 187.317 770.545 186.453 770.681C185.565 770.819 184.684 770.767 183.808 770.524C182.908 770.285 182.064 769.86 181.276 769.252C180.583 768.716 180.043 768.082 179.655 767.348C179.257 766.628 179.019 765.869 178.941 765.071C178.85 764.263 178.935 763.45 179.198 762.633C179.436 761.82 179.85 761.044 180.441 760.307L181.155 759.427L189.897 766.181L189.075 768.215L181.677 762.499L182.25 762.389L181.873 762.878C181.567 763.358 181.407 763.874 181.392 764.427C181.377 764.979 181.488 765.51 181.725 766.018C181.961 766.526 182.31 766.959 182.772 767.316C183.506 767.882 184.234 768.217 184.957 768.32C185.67 768.437 186.365 768.323 187.043 767.979C187.711 767.649 188.349 767.09 188.958 766.302C189.535 765.555 189.883 764.782 190.001 763.983C190.108 763.199 189.992 762.436 189.652 761.696C189.313 760.957 188.769 760.298 188.022 759.721C187.492 759.311 186.935 759.022 186.35 758.852C185.752 758.672 185.009 758.608 184.122 758.66L184.212 756.354C184.79 756.28 185.411 756.304 186.076 756.427C186.727 756.539 187.375 756.726 188.02 756.986C188.641 757.249 189.203 757.574 189.706 757.963Z" fill="black"/>
<path d="M159.219 732.069C160.183 732.975 160.834 734.011 161.174 735.179C161.514 736.346 161.545 737.53 161.266 738.728C160.963 739.928 160.347 741.022 159.419 742.011C158.49 742.999 157.442 743.675 156.275 744.039C155.084 744.404 153.895 744.453 152.709 744.187C151.522 743.92 150.447 743.334 149.484 742.428C148.596 741.594 147.93 740.673 147.485 739.667C147.029 738.648 146.846 737.652 146.937 736.677L150.404 736.26C150.391 736.625 150.421 737.007 150.494 737.405C150.567 737.804 150.701 738.188 150.894 738.559C151.088 738.929 151.341 739.261 151.654 739.555C152.129 740.002 152.654 740.283 153.229 740.399C153.791 740.527 154.355 740.492 154.92 740.292C155.484 740.092 156.002 739.742 156.472 739.242C156.919 738.766 157.225 738.241 157.389 737.665C157.541 737.077 157.541 736.5 157.39 735.934C157.239 735.368 156.932 734.867 156.469 734.432C156.143 734.126 155.808 733.882 155.462 733.698C155.104 733.527 154.737 733.417 154.359 733.368C153.968 733.307 153.561 733.302 153.137 733.351L153.375 729.864C154.306 729.726 155.3 729.859 156.357 730.263C157.402 730.656 158.356 731.258 159.219 732.069Z" fill="black"/>
<path d="M142.806 715.769C143.785 716.804 144.433 717.94 144.75 719.175C145.056 720.398 145.046 721.613 144.721 722.818C144.384 724.011 143.716 725.079 142.718 726.023C141.72 726.966 140.616 727.573 139.406 727.842C138.184 728.099 136.971 728.041 135.767 727.667C134.551 727.281 133.454 726.57 132.475 725.534C131.496 724.499 130.854 723.369 130.548 722.146C130.231 720.911 130.241 719.696 130.578 718.504C130.915 717.311 131.583 716.243 132.581 715.299C133.579 714.355 134.683 713.749 135.893 713.479C137.103 713.21 138.316 713.268 139.531 713.654C140.735 714.028 141.827 714.733 142.806 715.769ZM140.223 718.21C139.798 717.761 139.309 717.468 138.754 717.331C138.199 717.194 137.634 717.208 137.059 717.374C136.483 717.54 135.952 717.865 135.464 718.349C134.954 718.809 134.599 719.321 134.401 719.886C134.19 720.463 134.138 721.033 134.244 721.594C134.349 722.156 134.614 722.661 135.039 723.11C135.464 723.56 135.959 723.859 136.526 724.008C137.081 724.146 137.652 724.125 138.24 723.947C138.815 723.781 139.347 723.456 139.834 722.972C140.345 722.513 140.699 722 140.897 721.435C141.096 720.87 141.142 720.307 141.036 719.745C140.919 719.171 140.648 718.659 140.223 718.21Z" fill="black"/>
<path d="M129.422 701.397L118.477 710.669C117.796 711.246 117.058 711.624 116.264 711.802C115.458 711.966 114.676 711.92 113.918 711.662C113.135 711.403 112.445 710.919 111.845 710.212C111.424 709.714 111.107 709.194 110.896 708.653C110.685 708.112 110.572 707.566 110.557 707.017L113.621 705.973C113.674 706.221 113.741 706.446 113.821 706.648C113.902 706.849 113.998 707.015 114.109 707.146C114.309 707.382 114.515 707.545 114.726 707.636C114.938 707.727 115.162 707.739 115.399 707.674C115.612 707.606 115.836 707.472 116.072 707.272L126.742 698.234L128.074 699.806C128.373 700.16 128.64 700.474 128.873 700.749C129.095 701.011 129.278 701.227 129.422 701.397ZM123.158 709.303L120.564 711.5L114.788 704.681L117.382 702.484L123.158 709.303Z" fill="black"/>
<path d="M117.399 686.782L106.033 695.533C105.325 696.077 104.571 696.42 103.769 696.56C102.957 696.687 102.178 696.605 101.432 696.312C100.663 696.016 99.9954 695.501 99.4298 694.766C99.0318 694.249 98.74 693.715 98.5545 693.165C98.369 692.614 98.2814 692.064 98.2916 691.515L101.402 690.615C101.443 690.865 101.499 691.093 101.57 691.298C101.641 691.503 101.729 691.674 101.834 691.81C102.023 692.055 102.221 692.227 102.428 692.328C102.635 692.428 102.859 692.451 103.098 692.397C103.314 692.339 103.544 692.216 103.789 692.027L114.87 683.497L116.126 685.129C116.409 685.496 116.66 685.823 116.88 686.109C117.09 686.381 117.263 686.605 117.399 686.782ZM110.773 694.386L108.079 696.46L102.628 689.379L105.321 687.305L110.773 694.386Z" fill="black"/>
<path d="M103.041 666.824C103.896 668.07 104.392 669.323 104.528 670.583C104.65 671.853 104.454 673.039 103.941 674.141C103.413 675.253 102.59 676.193 101.472 676.961C100.609 677.553 99.7187 677.956 98.8025 678.169C97.8863 678.381 96.9914 678.412 96.1179 678.262C95.2303 678.122 94.4068 677.802 93.6476 677.303C92.8645 676.799 92.1863 676.13 91.613 675.295C91.0688 674.502 90.7148 673.683 90.5509 672.838C90.3772 671.978 90.38 671.133 90.5592 670.302C90.7383 669.471 91.0872 668.69 91.6059 667.959C92.1245 667.228 92.804 666.595 93.6444 666.06L94.5719 665.454L100.737 674.435L99.1619 676.235L94.556 669.526L95.2072 669.61L94.7825 669.901C94.4481 670.173 94.2145 670.5 94.0816 670.882C93.9248 671.261 93.8755 671.659 93.9336 672.077C93.9916 672.496 94.1567 672.903 94.4288 673.299C94.8078 673.851 95.2465 674.248 95.7451 674.489C96.2197 674.725 96.7374 674.796 97.2981 674.703C97.8446 674.619 98.4222 674.369 99.0308 673.951C99.6536 673.523 100.111 673.022 100.403 672.446C100.672 671.867 100.763 671.241 100.678 670.571C100.583 669.887 100.297 669.198 99.8209 668.504C99.4905 668.023 99.1283 667.647 98.7341 667.376C98.3302 667.091 97.8077 666.846 97.1668 666.64L98.3241 663.503C99.0075 663.679 99.6396 663.933 100.22 664.263C100.801 664.593 101.328 664.981 101.801 665.427C102.278 665.849 102.691 666.315 103.041 666.824Z" fill="black"/>
<path d="M89.3661 645.64C90.142 646.937 90.5588 648.218 90.6163 649.484C90.6591 650.759 90.3899 651.931 89.8088 652.999C89.2129 654.076 88.333 654.963 87.1692 655.659C86.2706 656.197 85.3575 656.544 84.4298 656.699C83.5022 656.854 82.6071 656.829 81.7446 656.625C80.8674 656.43 80.0654 656.059 79.3388 655.514C78.5885 654.963 77.9533 654.252 77.433 653.383C76.9393 652.558 76.6369 651.719 76.5259 650.865C76.4061 649.996 76.4615 649.152 76.692 648.334C76.9225 647.516 77.3193 646.758 77.8825 646.061C78.4456 645.364 79.1632 644.774 80.0352 644.292L80.9986 643.745L86.5934 653.093L84.9089 654.791L80.7293 647.808L81.374 647.933L80.9321 648.197C80.5814 648.447 80.3279 648.759 80.1714 649.133C79.9914 649.501 79.9174 649.895 79.9493 650.316C79.9813 650.737 80.1207 651.154 80.3676 651.567C80.7115 652.141 81.1247 652.564 81.6073 652.836C82.0664 653.101 82.5786 653.205 83.144 653.146C83.6946 653.097 84.2867 652.883 84.9201 652.503C85.5683 652.115 86.0561 651.643 86.3835 651.087C86.6874 650.525 86.8176 649.907 86.7741 649.233C86.7219 648.544 86.4797 647.838 86.0476 647.116C85.7478 646.615 85.4097 646.218 85.0331 645.923C84.6477 645.613 84.1416 645.336 83.5147 645.091L84.865 642.032C85.5361 642.25 86.1511 642.542 86.7102 642.908C87.2692 643.274 87.7708 643.694 88.2149 644.168C88.6649 644.619 89.0486 645.11 89.3661 645.64Z" fill="black"/>
<path d="M70.9 611.437C71.3881 612.478 71.5531 613.539 71.395 614.618C71.2142 615.688 70.7547 616.69 70.0166 617.624C69.263 618.565 68.2721 619.323 67.0439 619.899C65.7846 620.489 64.5601 620.768 63.3704 620.738C62.1807 620.708 61.1171 620.4 60.1796 619.816C59.2265 619.239 58.4987 618.414 57.9961 617.341C57.7193 616.75 57.5535 616.174 57.4987 615.612C57.4366 615.034 57.4736 614.486 57.6097 613.967C57.7302 613.455 57.9307 612.973 58.2111 612.519C58.4759 612.073 58.8046 611.682 59.1972 611.346L59.4645 612.159L56.5262 613.536L54.7888 609.828L67.1717 604.026L68.9419 607.804L65.9569 609.203L65.5402 608.374C66.0338 608.294 66.5405 608.303 67.0603 608.401C67.5801 608.499 68.0824 608.681 68.5671 608.946C69.0519 609.212 69.4964 609.554 69.9005 609.971C70.3046 610.389 70.6378 610.877 70.9 611.437ZM67.2711 611.886C67.0015 611.311 66.6363 610.875 66.1753 610.579C65.7143 610.283 65.1882 610.132 64.597 610.124C63.9903 610.124 63.3526 610.281 62.6841 610.594C62.0156 610.907 61.495 611.293 61.1223 611.752C60.7341 612.219 60.5062 612.723 60.4386 613.267C60.3554 613.818 60.4486 614.381 60.7181 614.956C60.9804 615.516 61.3498 615.94 61.8263 616.229C62.28 616.509 62.8102 616.649 63.417 616.649C64.0082 616.657 64.638 616.504 65.3065 616.191C65.975 615.877 66.5034 615.488 66.8916 615.021C67.2643 614.562 67.4881 614.069 67.563 613.541C67.6306 612.997 67.5333 612.446 67.2711 611.886Z" fill="black"/>
<path d="M61.5201 590.905L45.6297 597.292L44.0931 593.468L59.9836 587.082L61.5201 590.905ZM53.0797 596.906L49.7344 598.251L46.306 589.72L49.6513 588.376L53.0797 596.906Z" fill="black"/>
<path d="M48.8008 554.727C49.1911 556.026 49.2837 557.289 49.0786 558.516C48.8686 559.726 48.374 560.825 47.595 561.812L44.4543 560.309C44.9916 559.412 45.3136 558.634 45.4203 557.975C45.5105 557.32 45.4493 556.639 45.2369 555.932C45.0789 555.406 44.8312 554.97 44.4939 554.623C44.1567 554.276 43.7644 554.044 43.3171 553.928C42.8483 553.8 42.3756 553.807 41.8987 553.95C41.4054 554.099 41.0068 554.353 40.7027 554.713C40.3772 555.062 40.1611 555.476 40.0544 555.957C39.9428 556.42 39.966 556.915 40.1241 557.442C40.2377 557.82 40.3768 558.163 40.5414 558.472C40.7059 558.782 40.9272 559.101 41.2053 559.429C41.4619 559.747 41.8148 560.116 42.2639 560.536L40.4297 563.024L32.4899 564.253L29.5112 554.338L33.0381 553.278L35.4167 561.195L33.7095 560.525L39.4294 559.694L39.3807 561.322C39.0073 561.094 38.647 560.789 38.2999 560.41C37.9478 560.014 37.627 559.572 37.3374 559.085C37.0313 558.604 36.7993 558.1 36.6412 557.574C36.3151 556.488 36.2785 555.442 36.5314 554.434C36.7629 553.414 37.246 552.516 37.9807 551.739C38.7155 550.963 39.6584 550.402 40.8094 550.056C41.9439 549.715 43.058 549.694 44.1517 549.993C45.2289 550.297 46.1846 550.852 47.0187 551.659C47.8363 552.471 48.4303 553.494 48.8008 554.727Z" fill="black"/>
<path d="M45.6444 521.122L26.6601 524.817L25.9123 520.974L28.8909 520.237L28.811 521.04C28.2319 521.03 27.6706 520.842 27.127 520.475C26.5834 520.109 26.1096 519.607 25.7055 518.968C25.2812 518.316 24.9936 517.602 24.8428 516.827C24.6197 515.681 24.7246 514.603 25.1575 513.591C25.5735 512.583 26.2547 511.725 27.2011 511.016C28.1274 510.294 29.2731 509.799 30.6382 509.534C31.9864 509.271 33.2337 509.3 34.3803 509.619C35.5235 509.921 36.487 510.468 37.2709 511.26C38.0345 512.038 38.5295 513.009 38.7558 514.172C38.9034 514.93 38.9012 515.683 38.7492 516.429C38.5972 517.176 38.3228 517.833 37.9259 518.4C37.529 518.967 37.0588 519.382 36.5154 519.645L35.9794 518.779L44.8522 517.052L45.6444 521.122ZM35.5351 515.822C35.417 515.215 35.1705 514.712 34.7954 514.313C34.4035 513.917 33.9217 513.643 33.3501 513.492C32.7785 513.341 32.1304 513.336 31.4057 513.477C30.6979 513.615 30.1074 513.861 29.6342 514.216C29.1441 514.573 28.8001 515.008 28.6021 515.518C28.3841 516.016 28.3357 516.576 28.4571 517.199C28.5785 517.823 28.8267 518.334 29.2017 518.734C29.5768 519.133 30.0585 519.406 30.647 519.554C31.2355 519.702 31.8836 519.707 32.5914 519.569C33.3161 519.428 33.915 519.181 34.3882 518.826C34.8615 518.472 35.2055 518.037 35.4203 517.523C35.6182 517.013 35.6565 516.445 35.5351 515.822Z" fill="black"/>
<path d="M35.2311 496.169L21.6481 497.751L21.1952 493.863L23.636 493.449L23.7242 493.983C23.2569 493.83 22.8349 493.62 22.4581 493.353C22.0793 493.068 21.7562 492.743 21.4888 492.376C21.2024 491.995 20.9747 491.598 20.8056 491.186C20.6346 490.756 20.5233 490.32 20.4716 489.876C20.3942 489.211 20.426 488.594 20.5671 488.024C20.7081 487.455 20.9851 486.939 21.3978 486.476C21.7936 486.015 22.3612 485.62 23.1008 485.292L23.1241 485.938L22.691 485.781C22.2559 485.607 21.8565 485.368 21.4928 485.065C21.11 484.746 20.7829 484.387 20.5116 483.986C20.2231 483.588 19.9924 483.165 19.8194 482.719C19.6464 482.272 19.5351 481.836 19.4854 481.409C19.3603 480.335 19.4692 479.415 19.8121 478.649C20.138 477.885 20.6978 477.275 21.4917 476.82C22.2837 476.347 23.2765 476.042 24.4702 475.903L32.7582 474.937L33.2379 479.056L25.2825 479.982C24.7367 480.046 24.2938 480.175 23.9535 480.37C23.6133 480.566 23.3758 480.827 23.241 481.153C23.0872 481.465 23.0361 481.843 23.0877 482.286C23.1294 482.644 23.2279 482.97 23.383 483.263C23.5361 483.539 23.7279 483.776 23.9584 483.974C24.1869 484.154 24.4445 484.289 24.7312 484.376C25.018 484.464 25.3319 484.488 25.673 484.448L33.7563 483.507L34.236 487.625L26.255 488.555C25.7434 488.614 25.3175 488.741 24.9772 488.937C24.637 489.132 24.3909 489.394 24.2391 489.723C24.0873 490.052 24.0352 490.421 24.0829 490.83C24.1246 491.188 24.223 491.514 24.3781 491.807C24.5313 492.083 24.7231 492.32 24.9535 492.517C25.182 492.698 25.4396 492.832 25.7264 492.92C26.0131 493.008 26.3185 493.033 26.6425 492.995L34.7514 492.05L35.2311 496.169Z" fill="black"/>
<path d="M31.9891 459.881C32.0204 460.447 31.8817 460.893 31.5731 461.219C31.2473 461.547 30.7758 461.728 30.1587 461.762C29.593 461.793 29.1211 461.656 28.7431 461.35C28.3651 461.044 28.1614 460.626 28.132 460.094C28.1008 459.528 28.248 459.082 28.5738 458.754C28.8824 458.428 29.3453 458.247 29.9625 458.213C30.5282 458.182 31 458.319 31.378 458.625C31.756 458.931 31.9597 459.349 31.9891 459.881Z" fill="black"/>
</svg>
