<svg width="628" height="803" viewBox="0 0 628 803" fill="none" xmlns="http://www.w3.org/2000/svg">
<path d="M378.671 775.797L377.829 788.369L375.363 788.204L376.204 775.632L378.671 775.797ZM376.446 791.066C376.973 791.102 377.371 791.265 377.64 791.555C377.909 791.846 378.027 792.239 377.994 792.734C377.963 793.197 377.795 793.562 377.488 793.83C377.165 794.097 376.749 794.214 376.238 794.179C375.711 794.144 375.313 793.981 375.044 793.691C374.775 793.4 374.657 793.007 374.69 792.512C374.721 792.049 374.898 791.684 375.22 791.417C375.527 791.149 375.935 791.032 376.446 791.066Z" fill="black"/>
<path d="M346.653 772.195C347.681 772.355 348.577 772.787 349.342 773.489C350.091 774.189 350.642 775.069 350.995 776.128C351.347 777.187 351.427 778.333 351.235 779.566C351.04 780.815 350.614 781.882 349.958 782.767C349.283 783.666 348.468 784.324 347.512 784.742C346.54 785.157 345.509 785.279 344.418 785.109C343.77 785.007 343.192 784.82 342.684 784.546C342.176 784.273 341.752 783.931 341.411 783.522C341.052 783.126 340.78 782.686 340.596 782.204C340.397 781.72 340.305 781.219 340.321 780.704L340.836 780.979L340.333 784.204L337.867 783.818L339.811 771.369L342.277 771.754L341.814 774.718L341.219 774.796C341.381 774.384 341.644 773.996 342.008 773.631C342.354 773.281 342.781 772.983 343.289 772.738C343.781 772.491 344.319 772.316 344.902 772.213C345.469 772.107 346.053 772.101 346.653 772.195ZM345.661 774.348C344.918 774.232 344.234 774.311 343.608 774.586C342.982 774.86 342.462 775.289 342.047 775.872C341.614 776.469 341.333 777.178 341.204 778C341.079 778.806 341.132 779.551 341.365 780.235C341.583 780.917 341.948 781.484 342.46 781.937C342.972 782.389 343.6 782.673 344.343 782.789C345.07 782.903 345.747 782.822 346.373 782.548C346.983 782.27 347.503 781.842 347.934 781.261C348.349 780.678 348.619 779.984 348.745 779.177C348.873 778.355 348.83 777.595 348.615 776.898C348.382 776.214 348.017 775.647 347.521 775.197C347.008 774.744 346.389 774.461 345.661 774.348Z" fill="black"/>
<path d="M327.444 769.242L324.564 781.508L322.134 780.937L322.748 778.321L323.258 778.144C323.038 778.52 322.752 778.864 322.4 779.175C322.032 779.483 321.62 779.732 321.165 779.921C320.69 780.122 320.207 780.255 319.715 780.32C319.207 780.382 318.712 780.356 318.229 780.242C317.528 780.078 316.941 779.816 316.466 779.458C315.991 779.1 315.637 778.648 315.404 778.1C315.171 777.552 315.059 776.909 315.068 776.172L315.42 776.353L315.163 776.712C314.908 777.03 314.595 777.31 314.226 777.552C313.838 777.806 313.42 778.012 312.972 778.17C312.524 778.327 312.066 778.425 311.596 778.463C311.127 778.501 310.683 778.47 310.262 778.372C309.343 778.156 308.632 777.791 308.127 777.279C307.608 776.762 307.289 776.087 307.173 775.255C307.04 774.418 307.108 773.432 307.375 772.295L309.103 764.935L311.533 765.505L309.838 772.725C309.673 773.426 309.633 774.016 309.718 774.496C309.783 774.988 309.969 775.385 310.276 775.688C310.583 775.99 311.017 776.207 311.578 776.338C312.014 776.441 312.445 776.46 312.871 776.396C313.278 776.343 313.652 776.217 313.995 776.019C314.337 775.82 314.629 775.559 314.868 775.238C315.105 774.931 315.272 774.568 315.371 774.148L317.094 766.811L319.524 767.382L317.817 774.648C317.667 775.287 317.635 775.846 317.719 776.326C317.8 776.822 317.992 777.228 318.295 777.546C318.599 777.864 319.008 778.083 319.522 778.204C319.958 778.306 320.381 778.323 320.791 778.255C321.198 778.203 321.573 778.077 321.915 777.878C322.254 777.695 322.544 777.442 322.784 777.121C323.02 776.815 323.185 776.459 323.281 776.054L325.014 768.671L327.444 769.242Z" fill="black"/>
<path d="M278.208 755.299C279.188 755.649 279.987 756.241 280.607 757.074C281.211 757.902 281.587 758.869 281.735 759.975C281.884 761.082 281.747 762.223 281.327 763.398C280.902 764.588 280.283 765.556 279.473 766.303C278.641 767.059 277.717 767.553 276.7 767.784C275.668 768.009 274.632 767.936 273.592 767.565C272.975 767.344 272.442 767.051 271.994 766.687C271.547 766.323 271.194 765.908 270.936 765.442C270.657 764.986 270.473 764.503 270.383 763.995C270.278 763.482 270.281 762.973 270.393 762.47L270.848 762.836L269.749 765.91L267.399 765.069L271.642 753.205L273.992 754.046L272.982 756.87L272.383 756.835C272.619 756.46 272.95 756.128 273.376 755.839C273.782 755.559 274.257 755.347 274.802 755.202C275.332 755.051 275.892 754.98 276.484 754.988C277.061 754.99 277.636 755.094 278.208 755.299ZM276.83 757.227C276.122 756.974 275.435 756.924 274.769 757.076C274.103 757.229 273.511 757.552 272.994 758.047C272.457 758.552 272.048 759.196 271.768 759.979C271.493 760.748 271.406 761.49 271.507 762.205C271.593 762.916 271.845 763.541 272.264 764.082C272.682 764.622 273.245 765.019 273.953 765.272C274.646 765.52 275.326 765.568 275.992 765.415C276.643 765.257 277.235 764.934 277.767 764.444C278.284 763.949 278.68 763.318 278.954 762.549C279.235 761.766 279.334 761.011 279.254 760.286C279.153 759.57 278.901 758.945 278.498 758.41C278.079 757.869 277.523 757.475 276.83 757.227Z" fill="black"/>
<path d="M259.899 748.674L254.913 760.246L252.643 759.268L253.669 756.887L254.179 756.794C253.811 757.245 253.322 757.592 252.712 757.834C252.096 758.091 251.437 758.226 250.735 758.237C250.027 758.263 249.365 758.143 248.748 757.877C247.866 757.497 247.207 757.004 246.771 756.398C246.329 755.807 246.113 755.095 246.123 754.263C246.133 753.432 246.369 752.479 246.831 751.407L249.87 744.353L252.141 745.332L249.168 752.23C248.883 752.892 248.737 753.473 248.73 753.975C248.716 754.492 248.852 754.925 249.137 755.275C249.416 755.639 249.833 755.923 250.39 756.128C250.831 756.318 251.266 756.418 251.697 756.43C252.121 756.456 252.527 756.404 252.914 756.275C253.286 756.139 253.625 755.937 253.933 755.668C254.219 755.408 254.444 755.087 254.609 754.705L257.629 747.696L258.753 748.181C258.944 748.263 259.135 748.345 259.326 748.427C259.517 748.51 259.708 748.592 259.899 748.674Z" fill="black"/>
<path d="M221.165 729.829C222.397 730.511 223.332 731.349 223.971 732.343C224.602 733.35 224.933 734.421 224.964 735.553C224.987 736.7 224.692 737.827 224.08 738.932C223.607 739.786 223.033 740.493 222.358 741.051C221.683 741.61 220.95 742.009 220.159 742.248C219.361 742.501 218.541 742.577 217.7 742.477C216.837 742.384 215.993 742.108 215.167 741.651C214.384 741.217 213.747 740.682 213.258 740.045C212.756 739.401 212.406 738.695 212.209 737.928C212.012 737.16 211.977 736.364 212.105 735.538C212.233 734.713 212.536 733.902 213.013 733.106L213.534 732.215L222.416 737.133L221.852 739.29L215.217 735.616L215.795 735.414L215.563 735.834C215.397 736.2 215.338 736.57 215.387 736.944C215.414 737.325 215.539 737.678 215.761 738.002C215.984 738.326 216.291 738.597 216.683 738.814C217.229 739.117 217.76 739.264 218.276 739.257C218.77 739.257 219.232 739.101 219.66 738.789C220.081 738.492 220.458 738.042 220.791 737.44C221.132 736.824 221.305 736.216 221.309 735.614C221.291 735.019 221.106 734.46 220.756 733.937C220.392 733.406 219.867 732.95 219.181 732.571C218.705 732.307 218.246 732.144 217.805 732.083C217.349 732.014 216.812 732.027 216.192 732.122L215.849 729.025C216.493 728.887 217.125 728.835 217.747 728.868C218.368 728.902 218.969 729.006 219.549 729.181C220.123 729.334 220.662 729.55 221.165 729.829Z" fill="black"/>
<path d="M206.237 721.511L199.386 732.257L196.31 730.296L197.602 728.045L198.404 728.215C197.946 728.607 197.404 728.877 196.777 729.028C196.127 729.183 195.455 729.21 194.761 729.109C194.066 729.008 193.422 728.768 192.829 728.389C192.019 727.873 191.445 727.27 191.107 726.58C190.761 725.904 190.656 725.145 190.794 724.303C190.924 723.475 191.29 722.589 191.892 721.644L196.098 715.047L199.356 717.124L195.318 723.458C195.043 723.89 194.875 724.286 194.816 724.647C194.757 725.008 194.812 725.337 194.983 725.636C195.131 725.939 195.392 726.2 195.764 726.419C196.048 726.599 196.341 726.72 196.644 726.78C196.939 726.854 197.229 726.859 197.517 726.796C197.795 726.745 198.057 726.647 198.303 726.5C198.535 726.344 198.733 726.138 198.896 725.882L202.999 719.446L204.597 720.466C204.975 720.706 205.299 720.913 205.569 721.085C205.839 721.257 206.061 721.399 206.237 721.511Z" fill="black"/>
<path d="M185.399 700.931C186.239 701.544 186.989 702.281 187.65 703.14C188.297 703.989 188.738 704.796 188.971 705.561L186.301 706.939C186.161 706.56 185.977 706.188 185.749 705.823C185.517 705.435 185.248 705.071 184.943 704.729C184.638 704.387 184.298 704.079 183.923 703.806C183.264 703.324 182.657 703.03 182.102 702.921C181.547 702.813 181.02 702.884 180.521 703.133C180.031 703.37 179.569 703.785 179.135 704.38L177.875 706.104L177.345 705.569C177.747 705.208 178.256 704.986 178.873 704.901C179.476 704.807 180.117 704.839 180.794 704.997C181.462 705.168 182.086 705.466 182.668 705.89C183.598 706.57 184.276 707.392 184.701 708.356C185.103 709.324 185.239 710.345 185.109 711.419C184.956 712.496 184.512 713.538 183.775 714.546C183.02 715.58 182.148 716.339 181.159 716.826C180.16 717.325 179.134 717.536 178.08 717.46C177.017 717.396 176.033 717.034 175.129 716.373C174.741 716.09 174.406 715.776 174.123 715.431C173.828 715.076 173.588 714.713 173.404 714.341C173.198 713.972 173.054 713.599 172.972 713.223C172.868 712.85 172.83 712.495 172.858 712.159C172.873 711.813 172.944 711.498 173.072 711.215L173.825 711.527L172.009 713.768L169.064 711.616L175.972 702.158C176.586 701.319 177.258 700.67 177.988 700.213C178.715 699.733 179.489 699.447 180.31 699.353C181.128 699.237 181.964 699.313 182.819 699.581C183.673 699.849 184.534 700.299 185.399 700.931ZM180.253 707.812C179.75 707.444 179.237 707.238 178.714 707.193C178.17 707.152 177.654 707.261 177.168 707.52C176.669 707.769 176.221 708.165 175.824 708.708C175.428 709.251 175.187 709.798 175.101 710.349C174.993 710.904 175.046 711.428 175.26 711.922C175.452 712.419 175.8 712.851 176.304 713.219C176.795 713.578 177.306 713.773 177.838 713.805C178.36 713.849 178.875 713.74 179.384 713.478C179.87 713.219 180.312 712.818 180.708 712.276C181.105 711.733 181.352 711.191 181.451 710.649C181.537 710.097 181.484 709.573 181.292 709.076C181.091 708.592 180.744 708.171 180.253 707.812Z" fill="black"/>
<path d="M167.27 694.054L159.238 703.948L156.256 701.528L164.289 691.634L167.27 694.054ZM156.159 704.695C156.718 705.149 157.053 705.637 157.164 706.16C157.253 706.685 157.095 707.197 156.692 707.694C156.329 708.141 155.87 708.376 155.315 708.4C154.76 708.423 154.209 708.213 153.663 707.769C153.104 707.315 152.78 706.826 152.691 706.3C152.593 705.787 152.74 705.289 153.133 704.804C153.506 704.345 153.97 704.103 154.525 704.08C155.068 704.046 155.612 704.251 156.159 704.695Z" fill="black"/>
<path d="M156.715 685.34L148.204 694.825L145.489 692.389L147.131 690.379L147.895 690.678C147.379 690.989 146.799 691.168 146.156 691.214C145.49 691.261 144.823 691.178 144.154 690.965C143.485 690.752 142.889 690.41 142.365 689.94C141.651 689.299 141.183 688.611 140.962 687.875C140.73 687.151 140.751 686.385 141.024 685.577C141.287 684.781 141.793 683.966 142.541 683.133L147.766 677.309L150.642 679.89L145.625 685.481C145.283 685.862 145.053 686.226 144.936 686.572C144.819 686.918 144.82 687.253 144.939 687.575C145.036 687.898 145.251 688.198 145.583 688.475C145.833 688.699 146.103 688.866 146.392 688.975C146.67 689.096 146.956 689.148 147.25 689.132C147.533 689.128 147.808 689.074 148.074 688.969C148.328 688.853 148.557 688.682 148.76 688.456L153.857 682.775L155.268 684.042C155.602 684.341 155.888 684.597 156.126 684.811C156.364 685.025 156.561 685.201 156.715 685.34Z" fill="black"/>
<path d="M135.578 665.164C136.566 666.167 137.225 667.236 137.556 668.37C137.875 669.515 137.889 670.635 137.598 671.73C137.295 672.837 136.693 673.833 135.792 674.72C135.097 675.405 134.346 675.919 133.54 676.264C132.734 676.608 131.918 676.783 131.092 676.788C130.255 676.804 129.447 676.645 128.669 676.311C127.869 675.976 127.137 675.473 126.475 674.8C125.846 674.162 125.388 673.468 125.099 672.719C124.8 671.959 124.664 671.183 124.693 670.391C124.722 669.599 124.915 668.826 125.271 668.07C125.628 667.315 126.148 666.623 126.832 665.995L127.584 665.288L134.706 672.522L133.555 674.431L128.234 669.027L128.845 668.998L128.503 669.334C128.24 669.638 128.079 669.976 128.02 670.349C127.938 670.722 127.957 671.095 128.079 671.469C128.201 671.844 128.418 672.19 128.733 672.51C129.171 672.954 129.638 673.247 130.135 673.386C130.609 673.526 131.095 673.507 131.594 673.33C132.082 673.164 132.571 672.839 133.062 672.357C133.563 671.863 133.901 671.328 134.075 670.752C134.227 670.177 134.209 669.588 134.021 668.987C133.822 668.374 133.448 667.789 132.898 667.23C132.516 666.843 132.122 666.557 131.716 666.372C131.299 666.177 130.78 666.037 130.158 665.953L130.708 662.886C131.364 662.936 131.985 663.065 132.572 663.273C133.159 663.482 133.706 663.752 134.212 664.084C134.719 664.393 135.174 664.753 135.578 665.164Z" fill="black"/>
<path d="M119.817 648.215C120.741 649.277 121.333 650.385 121.593 651.537C121.841 652.7 121.785 653.819 121.427 654.894C121.056 655.979 120.394 656.937 119.44 657.766C118.704 658.407 117.923 658.874 117.097 659.168C116.271 659.462 115.446 659.586 114.621 659.54C113.785 659.504 112.988 659.296 112.232 658.914C111.454 658.531 110.755 657.983 110.135 657.271C109.547 656.595 109.133 655.874 108.891 655.109C108.639 654.331 108.552 653.548 108.63 652.76C108.707 651.971 108.947 651.211 109.35 650.479C109.752 649.748 110.314 649.089 111.036 648.505L111.83 647.845L118.492 655.506L117.224 657.34L112.248 651.617L112.859 651.626L112.497 651.941C112.216 652.227 112.035 652.555 111.952 652.923C111.847 653.29 111.844 653.664 111.942 654.046C112.04 654.427 112.237 654.786 112.531 655.124C112.94 655.595 113.388 655.916 113.875 656.086C114.34 656.254 114.827 656.265 115.336 656.119C115.833 655.984 116.341 655.69 116.861 655.239C117.392 654.777 117.762 654.264 117.971 653.7C118.158 653.135 118.177 652.546 118.026 651.935C117.866 651.311 117.528 650.704 117.014 650.112C116.657 649.702 116.281 649.392 115.888 649.183C115.484 648.962 114.974 648.79 114.359 648.668L115.097 645.64C115.748 645.731 116.361 645.899 116.933 646.143C117.506 646.387 118.035 646.69 118.52 647.053C119.007 647.393 119.439 647.78 119.817 648.215Z" fill="black"/>
<path d="M108.671 635.266L98.617 643.097L96.3754 640.219L99.5479 637.535L99.3654 638.59C98.7047 638.861 98.027 638.993 97.3323 638.987C96.6279 638.968 95.9675 638.823 95.3513 638.552C94.7351 638.282 94.2205 637.882 93.8076 637.351C93.6306 637.124 93.4873 636.901 93.3777 636.682C93.2583 636.451 93.1599 636.233 93.0826 636.03L97.0829 634.253C97.1027 634.461 97.1807 634.704 97.317 634.983C97.4309 635.26 97.5861 635.524 97.7828 635.776C97.999 636.054 98.2511 636.274 98.5389 636.435C98.814 636.606 99.1039 636.705 99.4084 636.731C99.7129 636.757 100.024 636.728 100.343 636.642C100.652 636.544 100.957 636.376 101.26 636.14L106.297 632.218L108.671 635.266Z" fill="black"/>
<path d="M97.7955 620.429C98.1029 620.858 98.2169 621.278 98.1375 621.69C98.045 622.11 97.7646 622.488 97.2964 622.823C96.8671 623.131 96.4274 623.259 95.9772 623.207C95.527 623.156 95.1575 622.928 94.8687 622.525C94.5613 622.096 94.4538 621.671 94.5463 621.251C94.6257 620.839 94.8996 620.466 95.3679 620.131C95.7971 619.823 96.2368 619.695 96.687 619.747C97.1372 619.798 97.5067 620.026 97.7955 620.429Z" fill="black"/>
<path d="M83.1209 598.935L72.3718 605.509L71.082 603.4L81.8311 596.826L83.1209 598.935ZM69.3707 605.938C69.6461 606.388 69.743 606.807 69.6612 607.195C69.5794 607.582 69.327 607.906 68.9038 608.164C68.508 608.406 68.1121 608.48 67.7161 608.384C67.3118 608.275 66.9761 608.002 66.709 607.565C66.4335 607.115 66.3367 606.696 66.4184 606.308C66.5002 605.921 66.7527 605.598 67.1758 605.339C67.5717 605.097 67.9717 605.03 68.376 605.139C68.772 605.235 69.1035 605.501 69.3707 605.938Z" fill="black"/>
<path d="M67.57 570.717C68.0325 571.648 68.1978 572.629 68.0661 573.659C67.9273 574.675 67.5274 575.632 66.8665 576.532C66.2057 577.432 65.3163 578.159 64.1985 578.714C63.0663 579.276 61.9493 579.545 60.8475 579.52C59.7241 579.489 58.716 579.203 57.8231 578.664C56.9231 578.11 56.2277 577.339 55.7368 576.35C55.4451 575.763 55.2642 575.183 55.1943 574.61C55.1244 574.037 55.1581 573.494 55.2956 572.979C55.4115 572.457 55.6132 571.981 55.9007 571.553C56.181 571.11 56.5362 570.746 56.9664 570.461L57.0398 571.041L54.1163 572.492L53.0064 570.257L64.2922 564.654L65.4021 566.89L62.715 568.224L62.3084 567.782C62.738 567.676 63.2067 567.667 63.7145 567.754C64.2008 567.834 64.6905 568.011 65.1834 568.284C65.6693 568.543 66.1227 568.881 66.5437 569.297C66.9575 569.699 67.2996 570.172 67.57 570.717ZM65.2397 571.15C64.9053 570.477 64.4452 569.964 63.8595 569.611C63.2737 569.259 62.6231 569.082 61.9075 569.08C61.1706 569.071 60.4295 569.251 59.6842 569.621C58.9534 569.984 58.376 570.458 57.9522 571.044C57.5212 571.615 57.269 572.24 57.1955 572.92C57.122 573.599 57.2525 574.276 57.5868 574.949C57.9141 575.609 58.3706 576.114 58.9564 576.467C59.535 576.805 60.1856 576.982 60.9083 576.998C61.6238 577 62.3471 576.82 63.0779 576.457C63.8232 576.087 64.4184 575.613 64.8637 575.035C65.2875 574.449 65.5398 573.824 65.6204 573.158C65.6938 572.479 65.5669 571.809 65.2397 571.15Z" fill="black"/>
<path d="M58.8869 553.33L47.2096 558.063L46.2721 555.749L48.7632 554.74L49.2014 555.054C48.7678 555.092 48.322 555.057 47.8639 554.949C47.3998 554.826 46.9592 554.634 46.5421 554.371C46.1041 554.1 45.7164 553.782 45.379 553.418C45.0356 553.039 44.7707 552.62 44.5844 552.16C44.3139 551.493 44.1877 550.862 44.2058 550.268C44.2239 549.674 44.3893 549.123 44.7019 548.617C45.0145 548.11 45.4744 547.648 46.0816 547.229L46.1369 547.621L45.6956 547.618C45.2885 547.594 44.8795 547.5 44.4688 547.339C44.0372 547.168 43.6276 546.946 43.2401 546.671C42.8526 546.397 42.508 546.079 42.2062 545.718C41.9045 545.357 41.6725 544.976 41.5102 544.576C41.1556 543.701 41.0421 542.91 41.1696 542.202C41.2911 541.479 41.658 540.83 42.2704 540.254C42.8768 539.663 43.7212 539.148 44.8037 538.709L51.8101 535.869L52.7476 538.183L45.8747 540.968C45.2074 541.239 44.7023 541.547 44.3592 541.893C43.9953 542.231 43.7786 542.612 43.7093 543.037C43.6399 543.462 43.7134 543.942 43.9298 544.476C44.0981 544.891 44.3315 545.254 44.63 545.564C44.9077 545.866 45.2267 546.099 45.5869 546.264C45.9472 546.429 46.3279 546.516 46.7291 546.526C47.1154 546.542 47.5087 546.469 47.9091 546.307L54.8932 543.476L55.8308 545.789L48.9134 548.593C48.3054 548.84 47.8299 549.136 47.4868 549.482C47.1289 549.834 46.9079 550.226 46.8237 550.657C46.7395 551.088 46.7966 551.549 46.9949 552.038C47.1632 552.453 47.3936 552.809 47.6861 553.105C47.9638 553.406 48.2828 553.64 48.6431 553.804C48.9885 553.975 49.3618 554.065 49.7629 554.076C50.1493 554.092 50.5352 554.021 50.9207 553.865L57.9494 551.016L58.8869 553.33Z" fill="black"/>
<path d="M41.8338 505.083C42.1135 506.085 42.0921 507.079 41.7696 508.066C41.4429 509.038 40.8706 509.904 40.0528 510.663C39.2351 511.423 38.2252 511.971 37.0231 512.307C35.8057 512.647 34.6581 512.701 33.5804 512.47C32.4829 512.229 31.5462 511.759 30.7702 511.062C29.9899 510.35 29.4513 509.462 29.1544 508.399C28.978 507.767 28.9091 507.163 28.9477 506.588C28.9864 506.012 29.1214 505.484 29.3529 505.004C29.5647 504.513 29.8519 504.084 30.2145 503.717C30.5729 503.335 30.99 503.044 31.466 502.844L31.4295 503.428L28.2857 504.306L27.6145 501.901L39.7504 498.513L40.4216 500.917L37.5321 501.724L37.2154 501.214C37.6573 501.191 38.1195 501.269 38.6019 501.45C39.0646 501.62 39.5124 501.885 39.9454 502.246C40.3741 502.592 40.7562 503.008 41.0917 503.496C41.423 503.968 41.6703 504.497 41.8338 505.083ZM39.4635 505.072C39.2613 504.348 38.9055 503.758 38.3962 503.302C37.8869 502.846 37.281 502.55 36.5785 502.414C35.8563 502.267 35.0945 502.305 34.2932 502.529C33.5072 502.748 32.8512 503.106 32.3251 503.601C31.7948 504.082 31.4298 504.649 31.2302 505.302C31.0307 505.956 31.032 506.645 31.2342 507.369C31.4322 508.078 31.7858 508.661 32.2951 509.117C32.8002 509.557 33.4061 509.853 34.1128 510.004C34.8153 510.141 35.5595 510.099 36.3455 509.879C37.1468 509.656 37.8204 509.302 38.3662 508.817C38.8923 508.321 39.2572 507.754 39.4611 507.116C39.6606 506.462 39.6614 505.781 39.4635 505.072Z" fill="black"/>
<path d="M33.0715 467.185C33.2859 468.399 33.1944 469.536 32.797 470.597C32.3996 471.659 31.7626 472.559 30.8859 473.299C29.9908 474.026 28.9208 474.499 27.6761 474.719C26.4314 474.939 25.2719 474.86 24.1976 474.481C23.1047 474.089 22.1898 473.463 21.4527 472.602C20.7157 471.741 20.24 470.704 20.0256 469.491C19.8279 468.372 19.8439 467.313 20.0735 466.314C20.3004 465.299 20.7196 464.453 21.3312 463.776L24.1524 465.398C23.9393 465.663 23.7489 465.965 23.5812 466.303C23.4135 466.642 23.2987 467.003 23.2367 467.388C23.1747 467.772 23.1784 468.162 23.248 468.556C23.3538 469.154 23.5889 469.657 23.9533 470.064C24.3019 470.474 24.7426 470.761 25.2756 470.927C25.8086 471.093 26.3902 471.12 27.0204 471.009C27.6192 470.903 28.1405 470.681 28.5844 470.342C29.0255 469.988 29.3474 469.558 29.5503 469.051C29.7532 468.544 29.8031 467.999 29.7001 467.416C29.6277 467.006 29.5136 466.636 29.3578 466.306C29.1863 465.979 28.9731 465.692 28.7181 465.444C28.4604 465.181 28.1596 464.95 27.8157 464.751L29.9381 462.28C30.7102 462.696 31.3782 463.35 31.9419 464.241C32.5029 465.117 32.8794 466.098 33.0715 467.185Z" fill="black"/>
<path d="M30.4564 452.161L17.8101 453.736L17.3593 450.116L21.4587 449.436L20.7617 450.248C20.0553 450.143 19.4054 449.909 18.8122 449.548C18.217 449.17 17.7241 448.708 17.3334 448.16C16.9427 447.612 16.7058 447.005 16.6227 446.338C16.5871 446.052 16.5783 445.787 16.5963 445.543C16.6123 445.283 16.6392 445.046 16.677 444.831L21.023 445.354C20.9336 445.543 20.8759 445.792 20.85 446.101C20.8062 446.397 20.804 446.704 20.8436 447.021C20.8871 447.371 20.9911 447.688 21.1557 447.974C21.3044 448.262 21.5028 448.495 21.7508 448.674C21.9987 448.853 22.2815 448.987 22.599 449.076C22.9145 449.15 23.2628 449.163 23.6438 449.115L29.9789 448.326L30.4564 452.161Z" fill="black"/>
<path d="M28.2946 428.824C28.3928 430.228 28.1989 431.469 27.7128 432.546C27.2107 433.623 26.4929 434.483 25.5595 435.126C24.6101 435.77 23.5049 436.136 22.244 436.224C21.2704 436.292 20.3654 436.195 19.5291 435.933C18.6927 435.67 17.9592 435.273 17.3285 434.739C16.6818 434.207 16.1715 433.561 15.7976 432.801C15.4066 432.027 15.1782 431.169 15.1123 430.227C15.0498 429.333 15.1525 428.508 15.4204 427.751C15.6872 426.979 16.0889 426.301 16.6255 425.718C17.1622 425.135 17.8115 424.673 18.5735 424.331C19.3355 423.989 20.1805 423.802 21.1085 423.769L22.1397 423.721L22.8478 433.848L20.7315 434.549L20.2025 426.984L20.6859 427.359L20.2071 427.393C19.8103 427.452 19.468 427.605 19.1804 427.849C18.8757 428.079 18.6478 428.376 18.4968 428.739C18.3458 429.103 18.2859 429.508 18.3172 429.955C18.3607 430.577 18.5258 431.103 18.8124 431.532C19.0819 431.946 19.4639 432.248 19.9584 432.438C20.4369 432.629 21.0193 432.701 21.7056 432.653C22.4079 432.604 23.0124 432.417 23.519 432.093C24.0085 431.754 24.3774 431.295 24.6257 430.716C24.8728 430.122 24.969 429.433 24.9143 428.651C24.8764 428.109 24.7631 427.635 24.5745 427.232C24.3847 426.812 24.081 426.368 23.6634 425.9L26.0756 423.927C26.5412 424.391 26.9291 424.894 27.2395 425.433C27.5499 425.973 27.7896 426.534 27.9586 427.115C28.1424 427.68 28.2544 428.249 28.2946 428.824Z" fill="black"/>
<path d="M27.3218 407.067C27.3287 408.139 27.0549 409.101 26.5004 409.953C25.9297 410.788 25.15 411.457 24.1612 411.96C23.1565 412.462 22.0221 412.717 20.7581 412.726C19.4621 412.734 18.3166 412.493 17.3214 412.004C16.3262 411.514 15.5458 410.839 14.9803 409.979C14.3987 409.119 14.1044 408.136 14.0973 407.032C14.0934 406.424 14.1778 405.872 14.3506 405.375C14.5233 404.862 14.7684 404.412 15.0859 404.026C15.3875 403.64 15.7453 403.31 16.1596 403.035C16.5578 402.76 16.9885 402.558 17.4517 402.427L17.3608 403.219L14.3368 403.239L14.3123 399.423L27.056 399.341L27.081 403.229L24.0091 403.248L23.9795 402.385C24.4284 402.51 24.8537 402.715 25.2555 403C25.6574 403.286 26.0116 403.636 26.3183 404.05C26.625 404.464 26.868 404.926 27.0473 405.437C27.2266 405.948 27.3181 406.491 27.3218 407.067ZM24.075 406.032C24.0712 405.44 23.9319 404.929 23.6572 404.499C23.3824 404.069 22.9962 403.735 22.4987 403.498C21.9852 403.261 21.3844 403.145 20.6964 403.15C20.0084 403.154 19.4172 403.278 18.9228 403.521C18.4123 403.765 18.0225 404.103 17.7533 404.537C17.4681 404.971 17.3274 405.484 17.3312 406.076C17.3349 406.652 17.4821 407.155 17.7729 407.585C18.0476 407.999 18.4417 408.324 18.9552 408.561C19.4528 408.798 20.0455 408.914 20.7335 408.91C21.4215 408.905 22.0207 408.781 22.5312 408.538C23.0256 408.295 23.4075 407.964 23.6768 407.547C23.946 407.113 24.0788 406.608 24.075 406.032Z" fill="black"/>
<path d="M27.384 386.402L11.4433 385.617L11.6322 381.782L27.5728 382.567L27.384 386.402ZM17.9004 388.194L14.5445 388.028L14.9658 379.471L18.3217 379.636L17.9004 388.194Z" fill="black"/>
<path d="M28.4338 369.905L15.7425 368.748L16.0911 364.924L28.7825 366.081L28.4338 369.905ZM13.4072 366.607C13.3418 367.324 13.123 367.875 12.7506 368.259C12.3637 368.625 11.8516 368.779 11.2142 368.721C10.6406 368.669 10.1895 368.419 9.86075 367.971C9.53204 367.523 9.39964 366.949 9.46356 366.248C9.52893 365.531 9.75505 364.989 10.1419 364.623C10.5128 364.255 11.009 364.099 11.6304 364.156C12.22 364.21 12.6791 364.46 13.0078 364.908C13.338 365.34 13.4711 365.906 13.4072 366.607Z" fill="black"/>
<path d="M30.3408 352.413L16.9821 355.926L17.57 351.719L27.4447 349.9L27.4102 350.84L18.3305 346.276L18.9117 342.116L30.7593 349.418L30.3408 352.413Z" fill="black"/>
<path d="M34.5384 328.626C34.2599 330.006 33.7433 331.151 32.9887 332.06C32.2184 332.965 31.2979 333.604 30.2273 333.975C29.1409 334.344 27.9783 334.403 26.7392 334.153C25.7825 333.96 24.9359 333.626 24.1993 333.151C23.4627 332.676 22.8612 332.097 22.3948 331.416C21.9127 330.731 21.5924 329.972 21.4338 329.141C21.2627 328.29 21.2704 327.402 21.4572 326.477C21.6344 325.598 21.9526 324.83 22.4119 324.172C22.8743 323.498 23.4416 322.951 24.1138 322.532C24.786 322.113 25.5349 321.839 26.3603 321.712C27.1858 321.585 28.0502 321.629 28.9536 321.844L29.9604 322.071L27.9525 332.023L25.726 332.137L27.226 324.702L27.5923 325.193L27.1218 325.098C26.7234 325.05 26.353 325.106 26.0107 325.265C25.6559 325.406 25.3574 325.631 25.1153 325.941C24.8731 326.252 24.7077 326.626 24.6191 327.066C24.4957 327.677 24.5152 328.228 24.6775 328.718C24.8273 329.189 25.1153 329.581 25.5415 329.896C25.9521 330.207 26.4945 330.431 27.1689 330.567C27.859 330.706 28.4914 330.687 29.0659 330.509C29.6279 330.312 30.1054 329.968 30.4985 329.476C30.8947 328.968 31.1704 328.33 31.3255 327.562C31.4331 327.029 31.4496 326.542 31.375 326.103C31.3036 325.648 31.1288 325.139 30.8505 324.577L33.7002 323.316C34.0256 323.887 34.2662 324.474 34.4221 325.077C34.5779 325.68 34.66 326.284 34.6684 326.89C34.6957 327.483 34.6523 328.062 34.5384 328.626Z" fill="black"/>
<path d="M38.5285 310.966C38.3994 311.478 38.1523 311.837 37.7871 312.042C37.4064 312.243 36.9368 312.273 36.3783 312.132C35.8663 312.003 35.4846 311.75 35.2331 311.373C34.9816 310.996 34.9165 310.567 35.0378 310.086C35.1669 309.574 35.4218 309.218 35.8025 309.017C36.1677 308.812 36.6296 308.78 37.1881 308.92C37.7 309.05 38.0818 309.303 38.3332 309.68C38.5847 310.056 38.6498 310.485 38.5285 310.966Z" fill="black"/>
<path d="M45.4575 285.88L33.4957 281.921L34.2725 279.574L46.2343 283.533L45.4575 285.88ZM31.2298 279.907C31.0639 280.408 30.8066 280.752 30.4578 280.94C30.1091 281.128 29.6993 281.144 29.2285 280.988C28.788 280.843 28.4762 280.588 28.2933 280.224C28.1154 279.845 28.1069 279.412 28.2678 278.926C28.4337 278.425 28.6911 278.08 29.0398 277.892C29.3885 277.704 29.7983 277.688 30.2692 277.844C30.7097 277.99 31.0189 278.253 31.1968 278.632C31.3797 278.996 31.3907 279.421 31.2298 279.907Z" fill="black"/>
<path d="M56.9537 255.781C56.5413 256.736 55.8994 257.496 55.028 258.06C54.163 258.611 53.1736 258.924 52.0599 259.001C50.9462 259.077 49.8165 258.868 48.6708 258.373C47.5105 257.872 46.5838 257.193 45.8908 256.336C45.1895 255.458 44.7563 254.504 44.5911 253.474C44.4323 252.429 44.5718 251.4 45.0096 250.387C45.2697 249.785 45.5958 249.272 45.9877 248.849C46.3797 248.425 46.8166 248.1 47.2983 247.872C47.7717 247.624 48.2648 247.471 48.7776 247.413C49.2967 247.341 49.804 247.377 50.2994 247.521L49.9043 247.952L46.9078 246.658L47.8976 244.366L59.4647 249.363L58.4749 251.654L55.7209 250.464L55.795 249.869C56.1535 250.129 56.4635 250.48 56.7248 250.924C56.9778 251.347 57.1592 251.835 57.269 252.388C57.3851 252.926 57.4203 253.49 57.3745 254.081C57.3351 254.656 57.1948 255.223 56.9537 255.781ZM55.1176 254.282C55.4157 253.592 55.5101 252.909 55.4007 252.235C55.2913 251.56 55.0062 250.949 54.5456 250.401C54.0766 249.833 53.4602 249.383 52.6964 249.054C51.9473 248.73 51.2124 248.596 50.4916 248.65C49.7772 248.69 49.1368 248.902 48.5706 249.284C48.0044 249.667 47.5722 250.204 47.274 250.894C46.9821 251.57 46.8909 252.245 47.0004 252.92C47.1161 253.58 47.4012 254.191 47.8555 254.753C48.3161 255.301 48.921 255.736 49.6701 256.06C50.4339 256.39 51.1803 256.538 51.9094 256.504C52.6302 256.45 53.2705 256.238 53.8304 255.87C54.3967 255.487 54.8257 254.958 55.1176 254.282Z" fill="black"/>
<path d="M64.618 237.922L53.4621 232.065L54.6223 229.855L57.0022 231.104L57.0453 231.642C56.7364 231.335 56.4753 230.972 56.2617 230.553C56.0556 230.119 55.918 229.658 55.8489 229.17C55.7732 228.661 55.7652 228.16 55.8251 227.667C55.8924 227.16 56.0413 226.687 56.2718 226.248C56.6065 225.611 57.0066 225.107 57.4719 224.737C57.9373 224.367 58.4643 224.137 59.0529 224.049C59.6415 223.96 60.2918 224.012 61.0036 224.205L60.7401 224.501L60.457 224.162C60.213 223.836 60.02 223.463 59.8779 223.045C59.7292 222.606 59.6345 222.149 59.5937 221.676C59.553 221.203 59.573 220.735 59.6538 220.271C59.7345 219.808 59.8753 219.384 60.0761 219.002C60.515 218.166 61.0457 217.568 61.6683 217.209C62.2983 216.835 63.0311 216.695 63.8666 216.79C64.7095 216.872 65.648 217.184 66.6821 217.727L73.3757 221.241L72.2154 223.451L65.6494 220.003C65.0119 219.669 64.4502 219.482 63.9643 219.444C63.4716 219.384 63.0406 219.465 62.6712 219.687C62.3018 219.908 61.9833 220.274 61.7155 220.784C61.5073 221.181 61.381 221.594 61.3367 222.022C61.2857 222.429 61.3137 222.823 61.4207 223.205C61.5276 223.586 61.7068 223.933 61.9583 224.246C62.1955 224.551 62.5054 224.804 62.8879 225.005L69.5602 228.508L68.4 230.718L61.7914 227.248C61.2106 226.943 60.6772 226.772 60.1913 226.734C59.6913 226.688 59.2494 226.772 58.8659 226.986C58.4823 227.201 58.1678 227.542 57.9224 228.009C57.7141 228.406 57.5916 228.811 57.5548 229.226C57.5037 229.633 57.5317 230.027 57.6387 230.408C57.7315 230.782 57.9036 231.126 58.155 231.438C58.3923 231.744 58.6951 231.993 59.0634 232.186L65.7782 235.712L64.618 237.922Z" fill="black"/>
<path d="M90.4335 193.739C89.8495 194.599 89.0766 195.225 88.1148 195.617C87.162 195.995 86.1314 196.117 85.0231 195.984C83.9147 195.85 82.8443 195.433 81.8116 194.732C80.7658 194.023 79.9828 193.182 79.4627 192.21C78.9384 191.216 78.6917 190.198 78.7225 189.155C78.7623 188.099 79.0922 187.115 79.7122 186.201C80.0805 185.658 80.4969 185.216 80.9613 184.874C81.4256 184.531 81.9158 184.293 82.4316 184.16C82.9433 184.005 83.4563 183.947 83.9708 183.987C84.4942 184.013 84.9857 184.144 85.4453 184.378L84.9764 184.727L82.2757 182.894L83.6774 180.829L94.103 187.905L92.7013 189.97L90.219 188.285L90.4035 187.714C90.707 188.036 90.9456 188.44 91.1191 188.925C91.2883 189.388 91.375 189.901 91.3792 190.465C91.3924 191.015 91.3212 191.576 91.1656 192.147C91.019 192.705 90.775 193.236 90.4335 193.739ZM88.9109 191.922C89.3332 191.3 89.5538 190.647 89.5728 189.964C89.5917 189.281 89.4263 188.627 89.0764 188.003C88.7223 187.356 88.2011 186.8 87.5126 186.332C86.8375 185.874 86.1407 185.604 85.4225 185.523C84.7132 185.428 84.0446 185.516 83.4167 185.786C82.7887 186.056 82.2636 186.502 81.8413 187.124C81.428 187.733 81.2118 188.379 81.1929 189.063C81.1829 189.733 81.3483 190.386 81.6892 191.024C82.0391 191.648 82.5516 192.189 83.2268 192.647C83.9152 193.115 84.6207 193.4 85.3432 193.504C86.0614 193.585 86.73 193.497 87.349 193.241C87.9769 192.971 88.4976 192.531 88.9109 191.922Z" fill="black"/>
<path d="M101.427 177.668L91.4705 169.947L92.9854 167.993L95.0336 169.582L94.9965 170.099C94.652 169.63 94.4386 169.07 94.3563 168.419C94.2614 167.758 94.2962 167.086 94.4608 166.404C94.6128 165.712 94.8947 165.1 95.3066 164.569C95.8949 163.811 96.5369 163.296 97.2325 163.026C97.9155 162.746 98.6585 162.714 99.4615 162.932C100.265 163.15 101.127 163.617 102.05 164.333L108.119 169.039L106.604 170.993L100.668 166.389C100.099 165.948 99.5727 165.661 99.0884 165.528C98.5914 165.386 98.1382 165.409 97.7287 165.597C97.3065 165.776 96.9267 166.109 96.5892 166.597C96.295 166.976 96.0886 167.373 95.9699 167.787C95.8386 168.191 95.7872 168.597 95.8159 169.004C95.8543 169.398 95.965 169.777 96.1479 170.142C96.328 170.484 96.5825 170.783 96.9112 171.038L102.942 175.715L102.192 176.682C102.065 176.846 101.937 177.011 101.81 177.175C101.682 177.339 101.555 177.504 101.427 177.668Z" fill="black"/>
<path d="M125.197 149.006L115.839 140.354L118.446 137.535L127.804 146.186L125.197 149.006ZM115.292 137.234C114.804 137.763 114.295 138.066 113.766 138.143C113.236 138.198 112.736 138.008 112.266 137.573C111.843 137.182 111.637 136.709 111.65 136.154C111.662 135.599 111.907 135.063 112.385 134.546C112.873 134.017 113.383 133.725 113.913 133.671C114.431 133.605 114.919 133.784 115.378 134.208C115.812 134.609 116.023 135.088 116.011 135.643C116.01 136.187 115.77 136.717 115.292 137.234Z" fill="black"/>
<path d="M134.571 139.033L125.653 129.929L128.259 127.377L130.158 129.144L129.811 129.887C129.534 129.353 129.393 128.763 129.388 128.118C129.384 127.45 129.509 126.79 129.765 126.136C130.02 125.482 130.4 124.909 130.903 124.417C131.588 123.745 132.305 123.322 133.054 123.149C133.791 122.964 134.554 123.034 135.343 123.359C136.12 123.672 136.901 124.229 137.685 125.029L143.16 130.618L140.4 133.322L135.143 127.956C134.785 127.59 134.437 127.338 134.099 127.199C133.761 127.059 133.427 127.039 133.098 127.138C132.769 127.213 132.456 127.408 132.159 127.722C131.919 127.957 131.735 128.215 131.607 128.497C131.469 128.767 131.398 129.049 131.395 129.343C131.381 129.626 131.418 129.904 131.505 130.176C131.605 130.437 131.761 130.677 131.973 130.894L137.314 136.345L135.96 137.672C135.64 137.986 135.366 138.254 135.137 138.478C134.909 138.702 134.72 138.887 134.571 139.033Z" fill="black"/>
<path d="M151.316 123.027L142.976 113.39L145.735 111.003L147.522 112.885L147.129 113.605C146.886 113.054 146.781 112.457 146.816 111.813C146.853 111.146 147.019 110.495 147.315 109.858C147.61 109.221 148.024 108.673 148.557 108.212C149.283 107.584 150.024 107.206 150.782 107.08C151.53 106.941 152.287 107.058 153.054 107.431C153.81 107.792 154.555 108.396 155.288 109.243L160.408 115.159L157.486 117.687L152.57 112.007C152.235 111.62 151.903 111.346 151.575 111.186C151.246 111.027 150.914 110.986 150.58 111.064C150.247 111.119 149.922 111.294 149.606 111.589C149.352 111.809 149.153 112.055 149.008 112.328C148.853 112.589 148.765 112.867 148.744 113.16C148.712 113.441 148.732 113.721 148.803 113.998C148.885 114.265 149.026 114.513 149.225 114.743L154.219 120.514L152.786 121.755C152.447 122.048 152.156 122.299 151.914 122.509C151.672 122.718 151.473 122.891 151.316 123.027Z" fill="black"/>
<path d="M173.933 104.639C172.877 105.444 171.76 105.933 170.584 106.106C169.421 106.269 168.296 106.14 167.211 105.72C166.139 105.29 165.215 104.566 164.439 103.548C163.663 102.531 163.209 101.448 163.078 100.3C162.96 99.1425 163.134 98.0243 163.599 96.9453C164.076 95.8566 164.843 94.9097 165.899 94.1044C166.955 93.2991 168.065 92.8149 169.228 92.652C170.405 92.4794 171.529 92.608 172.601 93.0378C173.673 93.4676 174.598 94.1914 175.374 95.2092C176.15 96.227 176.603 97.3098 176.734 98.4576C176.865 99.6054 176.692 100.724 176.214 101.812C175.749 102.891 174.989 103.833 173.933 104.639ZM171.924 102.005C172.382 101.656 172.702 101.231 172.884 100.73C173.065 100.229 173.107 99.7043 173.01 99.1547C172.913 98.605 172.664 98.0806 172.263 97.5814C171.888 97.0628 171.448 96.6839 170.944 96.4448C170.429 96.1929 169.907 96.0883 169.376 96.1309C168.845 96.1736 168.351 96.3696 167.893 96.7189C167.435 97.0681 167.109 97.498 166.914 98.0083C166.733 98.509 166.695 99.0405 166.802 99.6029C166.9 100.153 167.149 100.677 167.549 101.176C167.925 101.695 168.365 102.074 168.869 102.313C169.373 102.552 169.891 102.65 170.422 102.608C170.965 102.555 171.466 102.354 171.924 102.005Z" fill="black"/>
<path d="M190.859 92.0957L179.332 84.4849L182.859 82.117L190.8 88.2617L190.077 88.8632L187.422 79.0536L190.909 76.7125L193.37 90.4101L190.859 92.0957Z" fill="black"/>
<path d="M210.189 80.0278C209.264 80.5692 208.294 80.8124 207.279 80.7573C206.27 80.6804 205.301 80.3391 204.372 79.7334C203.435 79.1139 202.647 78.2587 202.009 77.1677C201.354 76.0491 200.991 74.9365 200.918 73.8298C200.845 72.7231 201.04 71.7099 201.503 70.7903C201.958 69.8568 202.661 69.1112 203.614 68.5537C204.139 68.2466 204.66 68.0438 205.177 67.9452C205.708 67.8385 206.22 67.8263 206.713 67.9085C207.198 67.977 207.662 68.122 208.107 68.3437C208.544 68.5516 208.935 68.8234 209.28 69.1592L208.548 69.4764L207.02 66.8664L210.314 64.9391L216.75 75.9384L213.395 77.902L211.843 75.2506L212.577 74.7935C212.692 75.2448 212.727 75.7158 212.68 76.2065C212.634 76.6972 212.508 77.1788 212.302 77.6513C212.097 78.1237 211.818 78.5652 211.465 78.9757C211.112 79.3862 210.686 79.7369 210.189 80.0278ZM209.464 76.6981C209.975 76.3991 210.349 76.0231 210.584 75.5702C210.82 75.1172 210.916 74.6161 210.872 74.0668C210.821 73.5037 210.621 72.9252 210.274 72.3314C209.926 71.7376 209.524 71.2873 209.066 70.9804C208.6 70.6597 208.113 70.491 207.602 70.4745C207.084 70.4441 206.569 70.5784 206.058 70.8774C205.561 71.1683 205.199 71.5471 204.972 72.0138C204.75 72.4587 204.665 72.9627 204.716 73.5258C204.76 74.0751 204.955 74.6467 205.302 75.2405C205.65 75.8343 206.057 76.2915 206.522 76.6122C206.98 76.9191 207.457 77.0849 207.953 77.1095C208.464 77.1261 208.967 76.989 209.464 76.6981Z" fill="black"/>
<path d="M228.124 69.7602L220.842 55.5583L224.259 53.8062L231.541 68.0081L228.124 69.7602ZM221.834 62.4392L220.301 59.4494L227.926 55.5401L229.459 58.5299L221.834 62.4392Z" fill="black"/>
<path d="M248.3 60.2405C247.087 60.7817 245.889 61.0012 244.704 60.899C243.534 60.7902 242.47 60.4068 241.51 59.7486C240.565 59.084 239.832 58.1672 239.31 56.9983C238.789 55.8294 238.596 54.6713 238.733 53.5242C238.884 52.3705 239.309 51.3221 240.01 50.3788C240.725 49.429 241.689 48.6835 242.901 48.1424C244.114 47.6012 245.305 47.385 246.475 47.4937C247.66 47.596 248.724 47.9794 249.669 48.6441C250.614 49.3087 251.347 50.2255 251.869 51.3944C252.39 52.5633 252.583 53.7214 252.447 54.8685C252.31 56.0156 251.885 57.0641 251.17 58.0139C250.469 58.9572 249.513 59.6994 248.3 60.2405ZM246.95 57.216C247.476 56.9813 247.885 56.6411 248.177 56.1956C248.469 55.75 248.63 55.2486 248.662 54.6913C248.694 54.1341 248.572 53.5665 248.296 52.9885C248.05 52.3976 247.709 51.9278 247.273 51.5791C246.831 51.2159 246.346 50.994 245.82 50.9136C245.293 50.8331 244.767 50.9103 244.241 51.145C243.715 51.3797 243.299 51.7231 242.993 52.1752C242.701 52.6208 242.542 53.1295 242.517 53.7014C242.486 54.2586 242.607 54.8262 242.883 55.4042C243.129 55.9951 243.47 56.4649 243.906 56.8136C244.342 57.1622 244.823 57.3767 245.35 57.4572C245.891 57.5311 246.424 57.4507 246.95 57.216Z" fill="black"/>
<path d="M264.003 53.3289L259.447 41.4273L262.854 40.123L264.495 43.9405L263.54 43.4583C263.473 42.7471 263.544 42.0603 263.753 41.3978C263.977 40.7296 264.308 40.1402 264.746 39.6297C265.185 39.1192 265.718 38.7438 266.346 38.5036C266.615 38.4006 266.87 38.3286 267.111 38.2876C267.367 38.2409 267.604 38.2103 267.821 38.1957L268.354 42.5405C268.149 42.4988 267.894 42.5024 267.587 42.5513C267.289 42.5796 266.991 42.6509 266.692 42.7653C266.363 42.8912 266.08 43.0682 265.842 43.2964C265.598 43.5097 265.419 43.7582 265.305 44.0417C265.191 44.3253 265.128 44.6319 265.117 44.9616C265.121 45.2855 265.192 45.6268 265.329 45.9854L267.612 51.9474L264.003 53.3289Z" fill="black"/>
<path d="M281.368 47.2559C280.868 47.4247 280.432 47.4111 280.062 47.2151C279.687 47.004 279.408 46.6256 279.223 46.0798C279.055 45.5795 279.06 45.1216 279.241 44.706C279.422 44.2905 279.747 44.0034 280.217 43.8448C280.717 43.676 281.155 43.6972 281.53 43.9083C281.9 44.1042 282.177 44.4751 282.362 45.0209C282.53 45.5212 282.524 45.9791 282.344 46.3946C282.163 46.8102 281.838 47.0973 281.368 47.2559Z" fill="black"/>
<path d="M306.208 39.4913L303.057 27.2918L305.45 26.6735L308.602 38.873L306.208 39.4913ZM303.523 24.2961C303.011 24.4282 302.582 24.3986 302.235 24.2073C301.889 24.0159 301.653 23.6802 301.529 23.1999C301.413 22.7507 301.458 22.3506 301.665 21.9997C301.887 21.6448 302.246 21.4034 302.742 21.2753C303.253 21.1433 303.682 21.1729 304.029 21.3642C304.376 21.5555 304.612 21.8913 304.736 22.3715C304.852 22.8208 304.799 23.2229 304.576 23.5777C304.37 23.9286 304.018 24.1681 303.523 24.2961Z" fill="black"/>
<path d="M337.736 32.8507C336.71 33.0212 335.724 32.8932 334.777 32.4666C333.846 32.0375 333.047 31.3756 332.379 30.481C331.711 29.5863 331.275 28.5235 331.071 27.2924C330.863 26.0455 330.932 24.8987 331.277 23.8519C331.635 22.7868 332.203 21.9058 332.979 21.2091C333.771 20.5098 334.712 20.0696 335.801 19.8886C336.448 19.781 337.055 19.7773 337.624 19.8776C338.192 19.9778 338.702 20.1687 339.154 20.4503C339.62 20.7136 340.015 21.0452 340.341 21.4451C340.683 21.8425 340.928 22.2884 341.075 22.783L340.499 22.6841L339.963 19.4643L342.426 19.055L344.492 31.4845L342.029 31.8938L341.538 28.9344L342.078 28.6742C342.054 29.1161 341.927 29.5671 341.695 30.0274C341.476 30.4692 341.164 30.8859 340.759 31.2777C340.37 31.6668 339.915 32.002 339.394 32.2832C338.888 32.5618 338.336 32.751 337.736 32.8507ZM338.002 30.4953C338.743 30.372 339.368 30.0816 339.876 29.6241C340.384 29.1666 340.743 28.596 340.954 27.9122C341.178 27.21 341.222 26.4485 341.085 25.6278C340.951 24.8228 340.666 24.1322 340.23 23.556C339.809 22.9771 339.285 22.5534 338.656 22.2848C338.028 22.0162 337.342 21.9436 336.601 22.0669C335.875 22.1876 335.258 22.4766 334.75 22.9341C334.258 23.389 333.898 23.9596 333.672 24.646C333.461 25.3298 333.423 26.0742 333.557 26.8792C333.693 27.6999 333.973 28.4076 334.396 29.0023C334.832 29.5785 335.357 30.0022 335.97 30.2734C336.598 30.542 337.276 30.6159 338.002 30.4953Z" fill="black"/>
<path d="M356.9 29.6188L355.781 17.0686L358.267 16.8468L358.506 19.5242L358.077 19.8516C358.167 19.4258 358.331 19.0097 358.568 18.603C358.821 18.1949 359.133 17.8297 359.506 17.5073C359.894 17.1675 360.311 16.8894 360.757 16.6728C361.22 16.4549 361.698 16.3238 362.192 16.2798C362.909 16.2158 363.549 16.2791 364.112 16.4699C364.675 16.6606 365.154 16.9793 365.547 17.4261C365.94 17.873 366.249 18.4478 366.472 19.1508L366.081 19.0893L366.212 18.668C366.355 18.2858 366.563 17.9218 366.837 17.5761C367.126 17.213 367.459 16.8861 367.834 16.5956C368.21 16.3051 368.614 16.0682 369.048 15.8849C369.481 15.7017 369.913 15.5909 370.343 15.5525C371.284 15.4686 372.074 15.5909 372.713 15.9193C373.369 16.2464 373.883 16.7868 374.256 17.5407C374.644 18.2932 374.89 19.2511 374.994 20.4145L375.666 27.9445L373.18 28.1664L372.521 20.7797C372.457 20.0625 372.309 19.4894 372.078 19.0602C371.861 18.6137 371.56 18.2952 371.174 18.1048C370.787 17.9144 370.307 17.8448 369.733 17.896C369.287 17.9358 368.872 18.0532 368.488 18.2481C368.118 18.4256 367.802 18.6627 367.539 18.9592C367.276 19.2557 367.082 19.5943 366.955 19.9751C366.827 20.3399 366.782 20.7375 366.821 21.1678L367.49 28.674L365.004 28.8958L364.341 21.4613C364.282 20.8079 364.138 20.2666 363.907 19.8374C363.674 19.3923 363.364 19.0666 362.976 18.8603C362.588 18.6539 362.131 18.5742 361.606 18.6211C361.159 18.6609 360.752 18.7776 360.384 18.9711C360.014 19.1486 359.698 19.3857 359.435 19.6822C359.171 19.9628 358.976 20.2934 358.849 20.6742C358.721 21.039 358.675 21.4286 358.712 21.843L359.386 29.397L356.9 29.6188Z" fill="black"/>
<path d="M408.023 27.3854C406.984 27.3606 406.039 27.05 405.189 26.4536C404.355 25.8576 403.694 25.0576 403.205 24.0537C402.717 23.0498 402.488 21.924 402.518 20.6763C402.548 19.4127 402.83 18.2991 403.366 17.3356C403.917 16.3564 404.639 15.5974 405.532 15.0586C406.441 14.5201 407.448 14.264 408.552 14.2903C409.207 14.3059 409.805 14.4162 410.344 14.6211C410.883 14.826 411.349 15.1092 411.74 15.4706C412.148 15.8164 412.475 16.2163 412.72 16.6703C412.981 17.1247 413.138 17.6085 413.19 18.1219L412.642 17.9168L412.72 14.6537L415.215 14.7132L414.915 27.3096L412.42 27.2502L412.491 24.251L413.071 24.0968C412.965 24.5264 412.755 24.9455 412.441 25.3541C412.144 25.7472 411.759 26.0981 411.288 26.4069C410.832 26.7162 410.322 26.9601 409.758 27.1387C409.209 27.3177 408.631 27.3999 408.023 27.3854ZM408.725 25.1215C409.477 25.1394 410.145 24.9713 410.73 24.6172C411.315 24.263 411.775 23.7698 412.11 23.1376C412.461 22.4898 412.647 21.75 412.667 20.9183C412.686 20.1025 412.536 19.3707 412.215 18.7229C411.91 18.0754 411.474 17.5609 410.907 17.1793C410.34 16.7976 409.681 16.5979 408.929 16.5799C408.193 16.5624 407.533 16.7307 406.948 17.0849C406.38 17.4394 405.92 17.9326 405.569 18.5644C405.234 19.1966 405.056 19.9206 405.037 20.7364C405.017 21.5681 405.159 22.3157 405.464 22.9792C405.784 23.627 406.22 24.1415 406.771 24.5228C407.338 24.9044 407.99 25.104 408.725 25.1215Z" fill="black"/>
<path d="M427.487 27.9212L428.584 15.3691L431.047 15.5844L430.821 18.1665L430.366 18.4158C430.574 17.8719 430.929 17.389 431.432 16.9672C431.936 16.5294 432.519 16.1949 433.182 15.9638C433.846 15.7167 434.513 15.6224 435.182 15.6809C436.139 15.7645 436.919 16.0254 437.523 16.4637C438.129 16.886 438.557 17.4937 438.809 18.2866C439.061 19.0796 439.136 20.0578 439.034 21.2214L438.366 28.8722L435.903 28.6569L436.557 21.1735C436.62 20.4562 436.576 19.8581 436.425 19.3791C436.275 18.8842 436.011 18.5158 435.63 18.2737C435.251 18.0158 434.765 17.8769 434.173 17.8572C433.695 17.8154 433.249 17.8568 432.837 17.9814C432.426 18.09 432.057 18.2666 431.731 18.511C431.42 18.7569 431.161 19.0555 430.954 19.4068C430.764 19.7435 430.651 20.1191 430.614 20.5335L429.95 28.1365L428.73 28.0299C428.523 28.0118 428.316 27.9937 428.109 27.9756C427.902 27.9575 427.694 27.9394 427.487 27.9212Z" fill="black"/>
<path d="M468.841 33.3613C467.788 33.1613 466.897 32.7072 466.169 31.9988C465.459 31.2777 464.952 30.3836 464.65 29.3165C464.351 28.2336 464.319 27.0713 464.555 25.8295C464.797 24.5563 465.254 23.4786 465.926 22.5965C466.599 21.7145 467.411 21.079 468.365 20.69C469.321 20.2853 470.341 20.1859 471.426 20.3918C472.023 20.5053 472.549 20.6947 473.004 20.9601C473.474 21.2286 473.868 21.5558 474.185 21.9418C474.506 22.3121 474.761 22.727 474.951 23.1864C475.143 23.6301 475.259 24.0918 475.298 24.5716L474.538 24.3295L475.102 21.3586L478.851 22.0705L476.474 34.5908L472.654 33.8655L473.227 30.8474L474.081 30.985C473.871 31.4012 473.588 31.779 473.23 32.1182C472.873 32.4575 472.461 32.7377 471.996 32.9587C471.53 33.1798 471.03 33.329 470.494 33.4064C469.958 33.4838 469.407 33.4688 468.841 33.3613ZM470.483 30.3752C471.065 30.4856 471.593 30.4475 472.068 30.2609C472.543 30.0743 472.945 29.7597 473.273 29.3172C473.605 28.8589 473.835 28.2918 473.963 27.6159C474.091 26.94 474.084 26.336 473.941 25.8039C473.8 25.2561 473.543 24.8083 473.17 24.4605C472.799 24.097 472.323 23.86 471.741 23.7496C471.175 23.6421 470.653 23.6896 470.175 23.8919C469.716 24.0815 469.32 24.4055 468.989 24.8637C468.661 25.3062 468.432 25.8655 468.304 26.5414C468.176 27.2173 468.182 27.8292 468.322 28.3769C468.465 28.909 468.716 29.3475 469.074 29.6923C469.447 30.0401 469.917 30.2677 470.483 30.3752Z" fill="black"/>
<path d="M492.703 38.5634C491.634 38.2875 490.751 37.7705 490.054 37.0124C489.377 36.2428 488.922 35.3157 488.69 34.2313C488.461 33.1313 488.507 31.9616 488.827 30.7222C489.147 29.4828 489.671 28.4448 490.399 27.6083C491.131 26.7562 491.988 26.1592 492.968 25.8174C493.949 25.4756 494.981 25.4446 496.066 25.7244C496.623 25.8684 497.136 26.0915 497.603 26.3939C498.07 26.6962 498.475 27.0486 498.817 27.4509C499.16 27.8532 499.413 28.282 499.576 28.7372C499.743 29.177 499.798 29.6043 499.741 30.0191L498.804 30.0004L500.855 22.0528L504.596 23.0183L500.158 40.2149L496.696 39.3213L497.212 36.4555L497.926 36.7636C497.78 37.1389 497.529 37.4707 497.173 37.7591C496.834 38.0514 496.426 38.2851 495.952 38.46C495.481 38.6194 494.962 38.7086 494.395 38.7276C493.84 38.7661 493.276 38.7113 492.703 38.5634ZM494.453 35.7186C495.026 35.8665 495.558 35.855 496.048 35.6841C496.538 35.5132 496.956 35.2078 497.301 34.768C497.661 34.3322 497.927 33.7813 498.099 33.1151C498.275 32.4334 498.311 31.8147 498.206 31.259C498.117 30.7073 497.9 30.238 497.554 29.8512C497.207 29.4644 496.747 29.197 496.174 29.0491C495.601 28.9011 495.069 28.9126 494.579 29.0835C494.104 29.2585 493.687 29.5638 493.326 29.9996C492.966 30.4354 492.698 30.9941 492.522 31.6758C492.35 32.3419 492.316 32.9529 492.421 33.5086C492.525 34.0644 492.743 34.5336 493.074 34.9164C493.42 35.3033 493.88 35.5706 494.453 35.7186Z" fill="black"/>
<path d="M515.284 44.699L514.158 30.9321L518.198 32.2456L518.264 42.2863L517.344 42.0882L523.424 33.9451L527.418 35.2439L518.16 45.6341L515.284 44.699Z" fill="black"/>
<path d="M537.972 52.9863C536.662 52.4711 535.625 51.7626 534.862 50.8608C534.105 49.9442 533.637 48.9263 533.458 47.8073C533.285 46.6733 533.43 45.5181 533.893 44.3418C534.25 43.4335 534.726 42.6582 535.323 42.0159C535.919 41.3736 536.594 40.8824 537.347 40.5422C538.105 40.1872 538.908 40.0042 539.754 39.9933C540.622 39.9734 541.495 40.1361 542.373 40.4816C543.207 40.8095 543.908 41.257 544.476 41.8241C545.059 42.3971 545.498 43.0512 545.793 43.7863C546.089 44.5214 546.227 45.3065 546.208 46.1415C546.189 46.9765 545.995 47.82 545.626 48.6719L545.226 49.6235L535.778 45.9085L536.055 43.6963L543.113 46.4716L542.566 46.7467L542.742 46.3C542.858 45.916 542.868 45.5416 542.771 45.1767C542.694 44.8028 542.525 44.4695 542.261 44.1769C541.998 43.8843 541.658 43.656 541.241 43.4921C540.66 43.2637 540.115 43.1867 539.604 43.261C539.114 43.3263 538.677 43.5413 538.293 43.906C537.915 44.2558 537.6 44.7509 537.348 45.3912C537.091 46.0464 536.999 46.6723 537.074 47.2691C537.17 47.8568 537.425 48.3872 537.841 48.8601C538.272 49.3389 538.852 49.7218 539.581 50.0087C540.088 50.2078 540.564 50.309 541.009 50.3123C541.47 50.3215 542.001 50.2381 542.603 50.0623L543.348 53.0885C542.728 53.309 542.108 53.4434 541.487 53.4916C540.866 53.5398 540.257 53.5152 539.659 53.4176C539.071 53.3409 538.508 53.1971 537.972 52.9863Z" fill="black"/>
<path d="M553.86 59.2819L559.247 47.7326L562.553 49.2748L561.566 51.6745L560.749 51.6109C561.152 51.1633 561.654 50.8239 562.256 50.5928C562.88 50.3539 563.542 50.2393 564.244 50.2488C564.946 50.2584 565.616 50.412 566.254 50.7096C567.124 51.1154 567.771 51.6382 568.197 52.2781C568.629 52.9034 568.832 53.6423 568.805 54.4948C568.785 55.3329 568.538 56.2594 568.064 57.2744L564.757 64.3649L561.255 62.7315L564.431 55.9237C564.647 55.4597 564.761 55.045 564.773 54.6796C564.784 54.3143 564.686 53.9948 564.478 53.7213C564.291 53.44 563.999 53.2154 563.601 53.0472C563.296 52.9052 562.99 52.8241 562.682 52.8038C562.38 52.7691 562.091 52.802 561.814 52.9025C561.545 52.9886 561.298 53.1206 561.074 53.2985C560.864 53.4831 560.695 53.7132 560.566 53.9887L557.34 60.9052L555.622 60.1037C555.216 59.9143 554.868 59.752 554.578 59.6167C554.288 59.4814 554.048 59.3698 553.86 59.2819Z" fill="black"/>
<path d="M575.639 69.8654L583.158 55.7875L586.545 57.5966L579.026 71.6745L575.639 69.8654ZM578.07 60.5252L579.653 57.5614L587.211 61.5979L585.628 64.5617L578.07 60.5252Z" fill="black"/>
<path d="M593.532 80.1807C592.724 79.6916 592.137 79.1019 591.769 78.4116C591.424 77.7159 591.293 76.9443 591.376 76.0968C591.473 75.2575 591.799 74.3794 592.354 73.4625L596.433 66.7295L599.738 68.7315L595.933 75.0129C595.667 75.4508 595.508 75.8686 595.454 76.2663C595.4 76.6639 595.456 77.0346 595.622 77.3783C595.796 77.7083 596.075 77.9894 596.458 78.2215C596.746 78.3956 597.035 78.5052 597.325 78.5503C597.63 78.6038 597.914 78.5981 598.177 78.5334C598.463 78.4632 598.72 78.3477 598.949 78.1868C599.185 78.0121 599.387 77.788 599.552 77.5143L603.494 71.0071L606.799 73.0091L600.196 83.9092L597.097 82.0315L598.308 79.707L599.073 79.8337C598.594 80.2542 598.039 80.5537 597.407 80.7322C596.783 80.8969 596.13 80.9408 595.447 80.8638C594.772 80.7732 594.134 80.5455 593.532 80.1807Z" fill="black"/>
<path d="M609.59 89.9821L616.772 79.4549L619.786 81.5109L617.584 85.0354L617.436 83.9753C617.982 83.5152 618.587 83.1822 619.251 82.9763C619.927 82.7794 620.6 82.7157 621.27 82.785C621.939 82.8543 622.551 83.0783 623.106 83.4571C623.344 83.6194 623.549 83.788 623.72 83.9629C623.905 84.1468 624.065 84.3239 624.2 84.4939L620.934 87.4078C620.852 87.2161 620.703 87.0082 620.488 86.784C620.295 86.5556 620.067 86.3512 619.802 86.1708C619.511 85.9725 619.204 85.8405 618.881 85.7749C618.567 85.696 618.261 85.6905 617.963 85.7583C617.665 85.8262 617.377 85.9495 617.1 86.1285C616.836 86.3165 616.596 86.5691 616.38 86.8863L612.782 92.1598L609.59 89.9821Z" fill="black"/>
<path d="M628.524 103.795C627.405 102.939 626.603 101.974 626.117 100.897C625.641 99.8077 625.47 98.7004 625.606 97.5753C625.751 96.4374 626.207 95.3664 626.975 94.3623C627.568 93.587 628.239 92.9724 628.989 92.5186C629.739 92.0648 630.522 91.7776 631.34 91.6573C632.166 91.5242 632.988 91.5686 633.806 91.7907C634.645 92.0097 635.44 92.4059 636.19 92.9794C636.902 93.5236 637.453 94.1464 637.843 94.8476C638.246 95.5586 638.489 96.3081 638.571 97.0961C638.653 97.8841 638.57 98.677 638.323 99.4747C638.076 100.272 637.657 101.03 637.068 101.748L636.422 102.553L628.358 96.3865L629.231 94.3353L635.256 98.9421L634.655 99.0565L634.946 98.6752C635.164 98.338 635.276 97.9806 635.283 97.6031C635.312 97.2225 635.24 96.8555 635.067 96.5018C634.895 96.1482 634.63 95.8353 634.274 95.5632C633.779 95.1842 633.275 94.9603 632.764 94.8915C632.275 94.8197 631.796 94.9065 631.326 95.1517C630.866 95.3842 630.428 95.7737 630.01 96.3203C629.582 96.8795 629.322 97.4563 629.23 98.0507C629.161 98.6421 629.261 99.2222 629.531 99.7912C629.813 100.37 630.266 100.897 630.889 101.373C631.321 101.704 631.751 101.932 632.179 102.058C632.619 102.193 633.153 102.259 633.78 102.255L633.665 105.369C633.008 105.411 632.375 105.37 631.765 105.246C631.155 105.122 630.576 104.931 630.028 104.673C629.483 104.437 628.981 104.145 628.524 103.795Z" fill="black"/>
<path d="M630.081 698.634C630.923 697.996 631.856 697.651 632.88 697.599C633.904 697.546 634.913 697.765 635.907 698.256C636.901 698.748 637.785 699.504 638.557 700.524C639.33 701.545 639.813 702.594 640.007 703.671C640.198 704.771 640.118 705.805 639.767 706.773C639.426 707.754 638.816 708.577 637.936 709.244C637.438 709.621 636.927 709.887 636.403 710.043C635.876 710.222 635.363 710.299 634.864 710.276C634.351 710.262 633.861 710.172 633.393 710.004C632.925 709.837 632.502 709.596 632.123 709.281L632.769 708.942L634.638 711.41L631.941 713.453L624.276 703.331L627.012 701.259L628.852 703.689L628.283 704.21C628.115 703.776 628.025 703.312 628.013 702.82C628.001 702.327 628.071 701.823 628.222 701.307C628.37 700.813 628.596 700.33 628.901 699.859C629.216 699.4 629.609 698.991 630.081 698.634ZM631.117 701.552C630.607 701.939 630.252 702.398 630.053 702.93C629.854 703.462 629.817 704.022 629.941 704.611C630.062 705.221 630.345 705.82 630.789 706.407C631.224 706.981 631.714 707.402 632.259 707.672C632.792 707.951 633.341 708.067 633.907 708.019C634.483 707.985 635.026 707.774 635.536 707.388C636.034 707.011 636.377 706.55 636.567 706.005C636.753 705.483 636.791 704.923 636.679 704.325C636.567 703.727 636.294 703.141 635.86 702.567C635.415 701.98 634.916 701.546 634.361 701.264C633.816 700.994 633.266 700.878 632.713 700.916C632.147 700.964 631.615 701.176 631.117 701.552Z" fill="black"/>
<path d="M613.403 711.037L622.289 724.237L619.462 726.14L610.576 712.941L613.403 711.037ZM620.762 717.714L622.464 720.242L615.516 724.92L613.814 722.391L620.762 717.714Z" fill="black"/>
<path d="M599.91 719.915L609.017 735.162L606.132 736.885L602.206 730.313L602.636 729.721C602.78 730.305 602.779 730.912 602.632 731.54C602.48 732.19 602.203 732.803 601.801 733.378C601.399 733.954 600.896 734.422 600.292 734.783C599.467 735.275 598.682 735.52 597.936 735.519C597.176 735.526 596.457 735.275 595.781 734.766C595.098 734.278 594.466 733.547 593.883 732.572L589.896 725.896L592.822 724.149L596.674 730.598C596.969 731.092 597.284 731.463 597.618 731.711C597.953 731.959 598.309 732.072 598.688 732.051C599.061 732.051 599.445 731.915 599.841 731.641C600.171 731.444 600.447 731.205 600.67 730.923C600.887 730.662 601.041 730.375 601.133 730.059C601.21 729.752 601.237 729.438 601.213 729.117C601.175 728.804 601.07 728.503 600.897 728.215L596.984 721.663L598.426 720.801C598.742 720.612 599.024 720.444 599.271 720.297C599.518 720.149 599.731 720.022 599.91 719.915Z" fill="black"/>
<path d="M575.758 727.454L576.29 734.531L575.342 732.806L587.123 742.081L583.692 743.859L577.575 738.785C577.337 738.602 577.083 738.373 576.814 738.098C576.538 737.845 576.288 737.587 576.062 737.326L576.463 736.847C576.503 737.133 576.547 737.462 576.595 737.833C576.644 738.204 576.703 738.597 576.774 739.011L577.854 746.885L574.402 748.674L573.29 734.951L572.689 729.045L575.758 727.454Z" fill="black"/>
<path d="M562.808 746.035L564.116 748.92L556.968 752.16L555.66 749.275L562.808 746.035Z" fill="black"/>
<path d="M539.592 749.994C540.622 749.594 541.648 749.497 542.671 749.701C543.7 749.919 544.629 750.391 545.459 751.116C546.28 751.862 546.925 752.839 547.394 754.047C547.851 755.225 548.028 756.367 547.924 757.471C547.805 758.581 547.447 759.561 546.85 760.41C546.238 761.265 545.41 761.895 544.365 762.3C543.813 762.514 543.249 762.63 542.673 762.648C542.087 762.686 541.535 762.635 541.016 762.492C540.483 762.356 540.017 762.151 539.619 761.876C539.226 761.616 538.937 761.291 538.751 760.9L539.505 760.453L542.498 768.173L539.321 769.405L532.899 752.847L535.898 751.684L537.091 754.362L536.438 754.538C536.323 754.153 536.319 753.743 536.424 753.307C536.53 752.872 536.729 752.434 537.022 751.994C537.306 751.575 537.669 751.186 538.113 750.825C538.547 750.485 539.04 750.208 539.592 749.994ZM539.9 752.912C539.304 753.143 538.839 753.495 538.508 753.967C538.176 754.439 537.984 754.985 537.933 755.605C537.882 756.226 537.993 756.886 538.264 757.588C538.531 758.274 538.892 758.829 539.348 759.252C539.81 759.691 540.319 759.965 540.877 760.075C541.44 760.2 542.02 760.147 542.617 759.915C543.213 759.684 543.678 759.332 544.009 758.86C544.332 758.409 544.516 757.866 544.561 757.23C544.598 756.616 544.483 755.965 544.217 755.279C543.945 754.578 543.588 754.013 543.147 753.583C542.691 753.159 542.189 752.882 541.64 752.752C541.077 752.627 540.497 752.68 539.9 752.912Z" fill="black"/>
<path d="M521.515 756.884L525.44 768.958L522.313 769.974L520.938 766.131L521.745 766.752C521.765 767.435 521.652 768.095 521.404 768.73C521.161 769.381 520.813 769.94 520.359 770.407C519.89 770.88 519.352 771.215 518.743 771.412C518.484 771.497 518.226 771.555 517.968 771.589C517.709 771.622 517.487 771.636 517.299 771.629L517.009 767.787C517.221 767.819 517.467 767.823 517.745 767.8C518.029 767.792 518.307 767.743 518.581 767.654C518.946 767.536 519.266 767.356 519.541 767.115C519.806 766.894 520.013 766.625 520.162 766.308C520.316 766.005 520.41 765.672 520.443 765.308C520.461 764.949 520.408 764.579 520.284 764.199L518.251 757.945L521.515 756.884Z" fill="black"/>
<path d="M504.649 762.114L508.068 774.341L504.785 775.259L501.367 763.032L504.649 762.114ZM507.154 777.313C507.786 777.136 508.322 777.153 508.762 777.362C509.203 777.571 509.503 777.96 509.662 778.531C509.809 779.055 509.75 779.528 509.486 779.95C509.211 780.393 508.765 780.7 508.149 780.873C507.517 781.049 506.979 781.025 506.534 780.801C506.094 780.592 505.796 780.21 505.641 779.655C505.49 779.116 505.554 778.632 505.833 778.206C506.097 777.783 506.538 777.485 507.154 777.313Z" fill="black"/>
<path d="M487.621 766.548L495.644 777.738L491.994 778.572L486.583 770.084L487.323 769.768L486.005 779.941L482.449 780.754L485.071 767.131L487.621 766.548Z" fill="black"/>
<path d="M464.014 771.059C465.371 770.834 466.601 770.914 467.703 771.298C468.805 771.683 469.72 772.31 470.448 773.178C471.176 774.047 471.643 775.105 471.85 776.352C472.01 777.315 471.999 778.225 471.816 779.082C471.634 779.939 471.308 780.707 470.836 781.386C470.368 782.08 469.773 782.649 469.052 783.093C468.317 783.555 467.493 783.862 466.577 784.014C465.725 784.156 464.909 784.129 464.131 783.933C463.355 783.754 462.66 783.423 462.044 782.942C461.416 782.478 460.897 781.891 460.487 781.181C460.077 780.47 459.814 779.663 459.696 778.758L459.547 777.712L469.609 776.042L470.495 778.012L462.659 779.312L462.967 778.823L463.053 779.344C463.155 779.765 463.362 780.128 463.672 780.433C463.966 780.741 464.318 780.959 464.729 781.085C465.139 781.212 465.581 781.236 466.054 781.157C466.749 781.042 467.319 780.81 467.763 780.46C468.192 780.113 468.49 779.658 468.656 779.096C468.822 778.533 468.844 777.88 468.721 777.139C468.595 776.381 468.328 775.752 467.921 775.252C467.498 774.755 466.968 774.396 466.332 774.178C465.682 773.977 464.955 773.944 464.15 774.077C463.597 774.169 463.107 774.34 462.678 774.589C462.249 774.839 461.809 775.22 461.359 775.733L459.376 773.75C459.766 773.264 460.213 772.833 460.718 772.457C461.226 772.097 461.76 771.798 462.321 771.559C462.881 771.32 463.446 771.153 464.014 771.059Z" fill="black"/>
<path d="M447.1 773.82L448.401 786.449L445.154 786.784L444.793 784.215L445.432 783.86C445.316 784.451 445.058 785 444.66 785.507C444.248 786.032 443.738 786.471 443.131 786.823C442.524 787.175 441.87 787.387 441.17 787.459C440.215 787.558 439.4 787.449 438.724 787.132C438.032 786.817 437.486 786.286 437.088 785.539C436.675 784.81 436.41 783.88 436.294 782.75L435.497 775.015L438.887 774.666L439.657 782.138C439.716 782.711 439.845 783.18 440.043 783.546C440.242 783.912 440.517 784.165 440.869 784.305C441.207 784.464 441.613 784.502 442.088 784.421C442.47 784.382 442.821 784.281 443.142 784.12C443.449 783.975 443.71 783.78 443.926 783.532C444.126 783.286 444.283 783.013 444.397 782.712C444.494 782.412 444.526 782.095 444.492 781.761L443.71 774.169L445.381 773.997C445.747 773.959 446.073 773.926 446.36 773.896C446.646 773.867 446.893 773.841 447.1 773.82Z" fill="black"/>
<path d="M422.988 775.641C423.515 775.612 423.931 775.742 424.235 776.029C424.54 776.333 424.708 776.773 424.74 777.348C424.768 777.875 424.64 778.315 424.355 778.667C424.07 779.019 423.68 779.208 423.184 779.236C422.657 779.264 422.241 779.127 421.936 778.823C421.632 778.535 421.464 778.104 421.432 777.529C421.404 777.002 421.532 776.562 421.817 776.21C422.102 775.858 422.492 775.668 422.988 775.641Z" fill="black"/>
</svg>
