<svg width="21" height="10" viewBox="0 0 21 10" fill="none" xmlns="http://www.w3.org/2000/svg">
<path d="M0.516 9V0.12H2.388V2.976L2.268 4.98L3.54 3.432L4.596 2.328H6.972L2.388 6.888V9H0.516ZM4.908 9L2.784 5.16L4.5 4.488L7.08 9H4.908ZM12.2567 2.184C12.8407 2.184 13.3527 2.34 13.7927 2.652C14.2407 2.956 14.5927 3.372 14.8487 3.9C15.1047 4.428 15.2327 5.016 15.2327 5.664C15.2327 6.304 15.1047 6.888 14.8487 7.416C14.5927 7.944 14.2407 8.364 13.7927 8.676C13.3527 8.988 12.8407 9.144 12.2567 9.144C11.8647 9.144 11.5007 9.072 11.1647 8.928C10.8287 8.776 10.5447 8.576 10.3127 8.328L10.2767 9H8.47669V0.12H10.3367V2.964C10.5687 2.724 10.8487 2.536 11.1767 2.4C11.5127 2.256 11.8727 2.184 12.2567 2.184ZM11.7767 7.608C12.0887 7.608 12.3607 7.52 12.5927 7.344C12.8327 7.168 13.0207 6.936 13.1567 6.648C13.2927 6.352 13.3607 6.024 13.3607 5.664C13.3607 5.296 13.2927 4.968 13.1567 4.68C13.0207 4.384 12.8327 4.152 12.5927 3.984C12.3607 3.808 12.0887 3.72 11.7767 3.72C11.4407 3.72 11.1447 3.824 10.8887 4.032C10.6327 4.232 10.4487 4.508 10.3367 4.86V6.456C10.4487 6.8 10.6327 7.08 10.8887 7.296C11.1447 7.504 11.4407 7.608 11.7767 7.608ZM18.4294 9V6.924H20.5894V9H18.4294Z" fill="black"/>
</svg>
